<svg width="29" height="32" viewBox="0 0 29 32" fill="none" xmlns="http://www.w3.org/2000/svg">
<path d="M0 10.6231V27.2893L0.131406 27.2644C0.0525625 27.705 0 28.1374 0 28.5448C0 32.1168 8.62325 32.0489 16.0368 31.9817C17.284 31.9704 18.4967 31.9591 19.6283 31.9651C24.9334 31.9923 29.0843 26.0579 28.9987 21.7932V3.87004L0 10.6231Z" fill="#2F2C26"/>
<path d="M12.9807 31.9991C10.2355 31.9991 7.51048 31.9327 5.26831 31.6293V13.7091C7.50222 14.0117 10.2197 14.0766 12.9552 14.0766C13.2165 14.0766 13.4786 14.0759 13.7399 14.0751V31.9976C13.4868 31.9983 13.2338 31.9991 12.9807 31.9991Z" fill="#585349"/>
<path d="M14.7152 31.9923V14.0691C14.99 14.0668 15.2641 14.0645 15.5359 14.0623V31.9855C15.2641 31.9885 14.9893 31.9893 14.7152 31.9923Z" fill="#3E3A33"/>
<path d="M28.9987 3.87001C29.0843 8.13464 24.9334 14.0698 19.6283 14.0411C18.4967 14.0351 17.2833 14.0464 16.0368 14.0577C8.6225 14.1256 0 14.1936 0 10.6231C0 6.45203 4.16294 0.138825 12.0248 0.138825C19.8866 0.138825 28.9138 -0.299543 28.9987 3.87001Z" fill="#F3E3CD"/>
<path d="M10.5118 3.42409C8.09691 4.11071 6.7438 5.41682 7.37455 7.77323C8.31166 11.278 16.3147 10.6246 19.0983 10.0821C20.8711 9.73652 22.9706 8.8507 22.9931 6.28C23.0239 2.61448 13.8472 2.47564 10.5118 3.42409Z" fill="white"/>
<path d="M10.5118 3.42409C8.09691 4.11071 6.7438 5.41682 7.37455 7.77323C8.31166 11.278 16.3147 10.6246 19.0983 10.0821C20.8711 9.73652 22.9706 8.8507 22.9931 6.28C23.0239 2.61448 13.8472 2.47564 10.5118 3.42409Z" fill="white"/>
<path d="M8.00897 8.87032C9.80886 10.7348 14.5545 10.6669 17.522 10.3183C17.5513 9.86555 17.483 9.33814 17.293 8.71942C17.061 7.95658 16.6915 7.41859 16.2913 6.9953C15.394 6.0461 10.6221 6.87383 8.00897 8.87032Z" fill="#64AB4E"/>
<path d="M8.35297 9.16154C10.2227 10.6178 14.1701 10.6518 16.9664 10.3786C17.0288 9.95909 16.9837 9.45657 16.79 8.84917C16.576 8.18141 16.3034 7.75358 16.0376 7.30916C15.4421 6.30639 10.6492 7.40423 8.35297 9.16154Z" fill="#B9D053"/>
<path d="M15.4405 2.93141C13.5137 2.89896 11.6643 3.0959 10.5117 3.42412C9.77579 3.63388 9.1533 3.91005 8.64044 4.24657C9.72398 4.41634 10.8263 4.69626 11.8618 4.91282C12.4933 5.04561 13.5708 5.42365 14.1385 5.03732C14.8098 4.58008 15.1649 3.6716 15.4405 2.93141Z" fill="#EE8947"/>
<path d="M10.5118 3.42408C9.97345 3.57725 9.49589 3.76664 9.07239 3.98696C9.96219 4.14466 10.8565 4.35368 11.7028 4.52496C12.3072 4.6487 13.3359 4.99579 13.8796 4.63889C14.4503 4.2654 14.7799 3.56066 15.0329 2.92761C13.2571 2.92761 11.5834 3.11925 10.5118 3.42408Z" fill="#FFBB98"/>
<path d="M18.0597 3.12907C17.3929 4.02093 16.5496 5.11123 17.1699 5.52094C18.2782 6.2551 19.6456 6.43317 20.9161 6.37281C21.6129 6.34112 22.3007 6.25737 22.9826 6.14645C22.8887 4.41253 20.6796 3.49728 18.0597 3.12907Z" fill="#EE8947"/>
<path d="M22.9593 5.90957C22.6913 4.36654 20.6608 3.52371 18.243 3.15701C17.625 3.9787 16.9199 4.9362 17.4831 5.30668C18.5411 6.00312 19.8446 6.17215 21.0566 6.1148C21.6971 6.08462 22.3316 6.00842 22.9593 5.90957Z" fill="#FFBB98"/>
<path d="M5.2442 10.9408C5.03095 10.8661 4.85749 10.7514 4.74786 10.6125C4.84848 10.559 4.94835 10.4963 5.04522 10.4239C5.35834 10.19 5.58662 9.90102 5.70676 9.61731C5.79987 9.61354 5.88772 9.5992 5.96732 9.57505C6.15729 9.80142 6.52073 9.96063 6.94423 9.98025C7.0013 10.0693 7.03284 10.1666 7.03284 10.2685C7.03284 10.4088 6.97352 10.5401 6.87065 10.6533C6.73624 10.5605 6.56279 10.5145 6.36906 10.5145C6.03115 10.5145 5.63092 10.6533 5.26824 10.9227C5.25998 10.9287 5.25246 10.9347 5.2442 10.9408Z" fill="#F6EBD9"/>
<path d="M7.03288 9.98177C7.00284 9.98177 6.97356 9.98101 6.94428 9.98026C6.79861 9.75163 6.48474 9.57808 6.10028 9.52074C6.21066 9.4634 6.29777 9.38115 6.35033 9.27476C6.4457 9.0816 6.40965 8.84469 6.27449 8.61833C6.48174 8.51118 6.74529 8.4478 7.03288 8.4478C7.31747 8.4478 7.57953 8.51043 7.78602 8.61606C7.90992 8.78055 8.05484 8.93221 8.21703 9.0718C8.2313 9.11858 8.23806 9.16611 8.23806 9.21515C8.23806 9.36832 8.16747 9.51093 8.04583 9.6309C7.97074 9.61958 7.89791 9.61355 7.82732 9.61355C7.50669 9.61355 7.24238 9.73126 7.1305 9.95611C7.12674 9.96365 7.123 9.97196 7.11924 9.98026C7.09071 9.98101 7.06216 9.98177 7.03288 9.98177Z" fill="#F6EBD9"/>
<path d="M8.21702 9.07178C8.05483 8.93219 7.90991 8.78052 7.78601 8.61604C7.89939 8.67338 7.99551 8.74431 8.06985 8.82429C8.04957 8.83938 8.0293 8.85523 8.00902 8.87032C8.0736 8.93748 8.14268 9.00235 8.21552 9.06498C8.21627 9.06724 8.21627 9.06951 8.21702 9.07178Z" fill="white"/>
<path d="M8.216 9.065C8.14297 9.00222 8.07371 8.93718 8.00897 8.86986C8.0293 8.85473 8.04963 8.83883 8.06995 8.82371C8.13846 8.89708 8.1889 8.97801 8.216 9.065Z" fill="#91C279"/>
<path d="M6.94421 9.98027C6.5207 9.96065 6.15726 9.80144 5.96729 9.57508C6.01459 9.56074 6.0589 9.54264 6.1002 9.52075C6.48466 9.5781 6.79854 9.75165 6.94421 9.98027Z" fill="#F9F0E2"/>
<path d="M7.22054 13.0806C6.72269 13.0806 6.29394 12.889 6.11072 12.6143C6.20308 12.5638 6.29544 12.5049 6.3848 12.4378C6.72721 12.1827 6.96824 11.8605 7.07637 11.5519C7.12368 11.5482 7.17173 11.5467 7.22054 11.5467C7.88659 11.5467 8.42573 11.8892 8.42573 12.3133C8.42573 12.3178 8.42573 12.3223 8.42573 12.3268C8.30409 12.48 8.21249 12.6407 8.15542 12.7984C7.93466 12.9705 7.59749 13.0806 7.22054 13.0806Z" fill="#F6EBD9"/>
<path d="M13.7481 12.6332C13.5289 12.4393 13.1715 12.3133 12.769 12.3133C12.7299 12.3133 12.6909 12.3148 12.6526 12.3171C12.6548 12.2959 12.6563 12.2748 12.6563 12.2537C12.8005 12.2921 12.959 12.3133 13.1249 12.3133C13.7534 12.3133 14.2715 12.0084 14.3263 11.6153C14.3684 11.7285 14.436 11.8424 14.5268 11.9503C14.5208 12.0318 14.4953 12.1103 14.4525 12.1835C14.1491 12.1918 13.9013 12.3088 13.7939 12.5238C13.7774 12.5585 13.7647 12.594 13.7556 12.6309C13.7526 12.6317 13.7504 12.6324 13.7481 12.6332Z" fill="#F6EBD9"/>
<path d="M23.4593 5.56169C23.2123 5.55037 22.9855 5.49226 22.8015 5.40097C22.6904 5.16781 22.5342 4.95354 22.3383 4.75736C22.3473 4.64343 22.3953 4.53627 22.4734 4.4412C22.7407 4.41554 22.9547 4.30086 23.0524 4.10392C23.0539 4.1009 23.0554 4.09714 23.0569 4.09412C23.171 4.06243 23.2941 4.0413 23.4233 4.033C23.4571 4.03753 23.4924 4.04054 23.5269 4.0428C23.2446 4.18314 23.0621 4.40196 23.0621 4.6487C23.0621 5.06897 23.5952 5.41079 24.2545 5.41532C24.1854 5.44776 24.1111 5.47491 24.033 5.49755C23.9737 5.49 23.9166 5.48699 23.8603 5.48699C23.7116 5.48699 23.5742 5.51189 23.4593 5.56169Z" fill="#F6EBD9"/>
<path d="M22.8015 5.40097C22.7993 5.40022 22.7978 5.39948 22.7963 5.39872C22.6859 5.16783 22.5312 4.95579 22.3383 4.76112C22.3383 4.76036 22.3383 4.75887 22.3383 4.75736C22.5342 4.95354 22.6904 5.16782 22.8015 5.40097Z" fill="white"/>
<path d="M22.7963 5.39871C22.5163 5.25837 22.3368 5.04031 22.3368 4.79583C22.3368 4.78452 22.3375 4.77318 22.3383 4.76111C22.5313 4.95578 22.686 5.16782 22.7963 5.39871Z" fill="#FFCDB1"/>
<path d="M16.9536 1.72261C16.9506 1.72261 16.9469 1.72261 16.9439 1.72261C16.8297 1.62226 16.6961 1.53173 16.5452 1.45552C16.3101 1.33781 16.0684 1.27519 15.8499 1.26462C15.7845 1.17031 15.7485 1.06542 15.7485 0.956013C15.7485 0.531211 16.2884 0.18866 16.9536 0.18866C17.3434 0.18866 17.6903 0.306365 17.911 0.488962C17.854 0.482171 17.7984 0.479144 17.7443 0.479144C17.423 0.479144 17.1586 0.596099 17.0475 0.821704C16.9199 1.07749 17.0227 1.40873 17.2825 1.69395C17.1782 1.71281 17.0678 1.72261 16.9536 1.72261Z" fill="#F6EBD9"/>
<path d="M18.734 3.14946C18.068 3.14946 17.5288 2.80613 17.5288 2.38284C17.5288 2.24853 17.5829 2.12253 17.6775 2.01312C17.718 2.03727 17.7608 2.06065 17.8044 2.08254C18.0627 2.21232 18.3285 2.27495 18.5635 2.27495C18.8849 2.27495 19.15 2.15724 19.2619 1.93163C19.2957 1.86297 19.3137 1.78827 19.3159 1.71056C19.3392 1.71886 19.3617 1.72716 19.3835 1.73622C19.2806 2.02294 19.2919 2.29985 19.4406 2.50206C19.5277 2.61902 19.6516 2.69899 19.7995 2.74275C19.5968 2.98496 19.1958 3.14946 18.734 3.14946Z" fill="#F6EBD9"/>
<path d="M13.444 0.135071C13.4786 0.124508 13.5139 0.11469 13.5499 0.106391C13.5266 0.116199 13.5041 0.126017 13.4808 0.135071C13.4681 0.135071 13.4568 0.135071 13.444 0.135071ZM13.5657 0.135071C13.613 0.115454 13.6603 0.0958351 13.7083 0.0762184C13.794 0.0641466 13.8833 0.0573561 13.9749 0.0573561C14.1581 0.0573561 14.3331 0.0837611 14.4893 0.130539C14.1814 0.132048 13.8728 0.133562 13.5657 0.135071Z" fill="white"/>
<path d="M13.4809 0.135101C13.5042 0.126024 13.5268 0.116181 13.5501 0.106348C13.6013 0.0942453 13.6548 0.0836628 13.709 0.0760987C13.6608 0.0957655 13.6134 0.115435 13.5659 0.135101C13.5381 0.135101 13.5087 0.135101 13.4809 0.135101Z" fill="#F95A5C"/>
<path d="M14.9451 1.27969C14.7656 1.21103 14.5554 1.17256 14.3308 1.17256C14.2775 1.17256 14.2242 1.17481 14.1724 1.17858C14.0132 1.07823 13.8097 1.00579 13.5822 0.974104C13.3524 0.873752 13.1204 0.824708 12.9131 0.824708C12.8636 0.824708 12.8155 0.82698 12.769 0.833016C12.769 0.829998 12.769 0.826971 12.769 0.823953C12.769 0.521386 13.0438 0.260327 13.444 0.135074C13.4568 0.135074 13.4681 0.135074 13.4808 0.135074C13.5086 0.135074 13.5379 0.135074 13.5657 0.135074C13.8728 0.133565 14.1814 0.132052 14.4893 0.130543C14.8978 0.253531 15.1808 0.517613 15.1808 0.823953C15.1808 0.994477 15.093 1.15218 14.9451 1.27969Z" fill="#F6EBD9"/>
<path d="M13.0694 2.47261C12.8652 2.44545 12.6797 2.38433 12.528 2.30057C12.5415 2.25454 12.5483 2.20775 12.5483 2.16022C12.5483 2.15192 12.5475 2.14438 12.5475 2.13608C12.6669 2.24625 12.8103 2.34584 12.9725 2.42733C13.0048 2.44393 13.0371 2.45903 13.0694 2.47261Z" fill="#F6EBD9"/>
<path d="M13.9764 1.20578C13.8856 1.13636 13.7835 1.07222 13.6731 1.01638C13.6431 1.00129 13.6123 0.98695 13.5822 0.974122C13.8097 1.00581 14.0132 1.07825 14.1724 1.17861C14.1056 1.18464 14.0395 1.19371 13.9764 1.20578Z" fill="#F9F0E2"/>
<path d="M11.3424 2.92761C11.2222 2.92761 11.1058 2.91628 10.9962 2.89515C11.3461 2.53449 11.5218 2.10516 11.4618 1.76562C11.5616 1.78524 11.6593 1.79506 11.7524 1.79506C11.8853 1.79506 12.0092 1.77544 12.1166 1.73545C12.1226 1.96105 12.2802 2.16251 12.528 2.30059C12.4244 2.65749 11.9333 2.92761 11.3424 2.92761Z" fill="#F6EBD9"/>
<path d="M12.5279 2.30058C12.2801 2.1625 12.1224 1.96104 12.1164 1.73544C12.1532 1.72186 12.1885 1.70525 12.2208 1.68714C12.2846 1.84182 12.3965 1.99727 12.5474 2.1361C12.5474 2.1444 12.5482 2.15193 12.5482 2.16023C12.5482 2.20777 12.5414 2.25456 12.5279 2.30058Z" fill="#F9F0E2"/>
<path d="M5.44398 3.61497C5.04676 3.48897 4.77344 3.22867 4.77344 2.92761C4.77344 2.50356 5.31408 2.16024 5.97936 2.16024C6.27146 2.16024 6.54027 2.22664 6.74901 2.3368C6.55153 2.40547 6.3503 2.5111 6.15883 2.65295C5.78864 2.92911 5.53709 3.28298 5.44398 3.61497Z" fill="#F6EBD9"/>
<path d="M4.66454 6.77647C3.99925 6.77647 3.45935 6.43315 3.45935 6.0091C3.45935 5.7171 3.71691 5.46282 4.09461 5.3338C4.16295 5.38058 4.23653 5.42358 4.31462 5.46282C4.57218 5.59184 4.83725 5.65447 5.07303 5.65447C5.27503 5.65447 5.45524 5.60769 5.5889 5.51714C5.76461 5.64994 5.87049 5.82198 5.87049 6.0091C5.87049 6.06494 5.86072 6.11927 5.84345 6.17134C5.66248 6.30715 5.51005 6.46107 5.39066 6.62179C5.18867 6.71913 4.93712 6.77647 4.66454 6.77647Z" fill="#F6EBD9"/>
<path d="M3.20713 9.89575C3.15006 9.87689 3.09525 9.85502 3.04419 9.83087C3.16208 9.73957 3.26645 9.64072 3.3573 9.53735C3.28822 9.65732 3.23716 9.77805 3.20713 9.89575ZM3.57731 9.23252C3.735 8.96013 3.79657 8.68021 3.74175 8.44781C3.74851 8.44781 3.75527 8.44781 3.76203 8.44781C3.87391 8.44781 3.98279 8.45761 4.08566 8.47572C4.09543 8.56551 4.12471 8.65908 4.17127 8.75114C4.08942 8.79792 4.00832 8.84999 3.92947 8.90884C3.79582 9.00844 3.67793 9.11783 3.57731 9.23252Z" fill="#F6EBD9"/>
<path d="M5.84339 4.52271C5.71424 4.47743 5.60686 4.40198 5.52877 4.2971C5.39361 4.1145 5.37183 3.87154 5.44392 3.615C5.60536 3.66631 5.78708 3.69499 5.97931 3.69499C6.10696 3.69499 6.23086 3.68216 6.3465 3.65801C6.07167 3.92663 5.8952 4.23749 5.84339 4.52271ZM7.12967 3.15624C7.16572 3.0838 7.18449 3.00686 7.18449 2.92763C7.18449 2.68996 7.01478 2.47793 6.74896 2.33683C6.92618 2.27571 7.10039 2.24402 7.26108 2.24402C7.53591 2.24402 7.76869 2.33607 7.90686 2.5232C8.02324 2.68089 8.05553 2.88386 8.01573 3.10116C7.91586 3.06645 7.80399 3.04835 7.68384 3.04835C7.51114 3.04835 7.3219 3.08456 7.12967 3.15624Z" fill="#F6EBD9"/>
<path d="M5.97949 3.69496C5.78725 3.69496 5.60554 3.66629 5.44409 3.61498C5.5372 3.28298 5.78876 2.92911 6.15895 2.65295C6.35043 2.5111 6.55166 2.40547 6.74915 2.33681C7.01497 2.47791 7.18468 2.68993 7.18468 2.92761C7.18468 3.00684 7.16591 3.08378 7.12986 3.15622C6.94589 3.22488 6.75966 3.32523 6.5817 3.45803C6.49685 3.52066 6.41876 3.58782 6.34668 3.65799C6.23104 3.68214 6.10714 3.69496 5.97949 3.69496Z" fill="#F9F0E2"/>
<path d="M5.86219 8.09239C5.81263 8.09239 5.76383 8.08937 5.71727 8.08333C5.67672 8.05994 5.63542 8.03656 5.59262 8.01543C5.4905 7.96412 5.38688 7.92337 5.28476 7.89243C5.25998 7.86904 5.2367 7.84265 5.21567 7.81473C4.99266 7.51065 5.07826 7.0436 5.39063 6.62181C5.6174 6.51316 5.78184 6.35471 5.84341 6.17136C5.84417 6.17061 5.84567 6.16985 5.84642 6.16909C6.2091 5.89973 6.60933 5.76164 6.94798 5.76164C7.09365 5.76164 7.22806 5.78729 7.3422 5.83936C7.2626 6.10042 7.22055 6.3811 7.22055 6.68443C7.2198 6.90852 7.24233 7.14394 7.28814 7.39143C7.19353 7.49556 7.08539 7.59364 6.9645 7.68418C6.60107 7.9543 6.20009 8.09239 5.86219 8.09239Z" fill="#F6EBD9"/>
<path d="M7.28825 7.39143C7.24245 7.14394 7.21991 6.90852 7.22066 6.68442C7.22066 6.38109 7.26272 6.10041 7.34232 5.83934C7.44369 5.88536 7.52928 5.95253 7.59386 6.04081C7.84617 6.38186 7.70501 6.93418 7.28825 7.39143Z" fill="white"/>
<path d="M5.39069 6.62184C5.51008 6.46113 5.6625 6.3072 5.84347 6.17139C5.7819 6.35474 5.61746 6.51319 5.39069 6.62184Z" fill="#F9F0E2"/>
<path d="M6.59812 5.37988C6.32329 5.37988 6.09051 5.28781 5.95235 5.10069C5.83596 4.94299 5.80291 4.74003 5.84346 4.52272C5.94258 4.55819 6.05522 4.57554 6.17536 4.57554C6.51326 4.57554 6.91423 4.43671 7.27691 4.16659C7.68539 3.86175 7.94971 3.46109 8.01579 3.10117C8.14419 3.1472 8.25231 3.2219 8.33041 3.32753C8.63977 3.7463 8.35669 4.48122 7.70042 4.97091C7.33699 5.24104 6.93602 5.37988 6.59812 5.37988Z" fill="#F6EBD9"/>
<path d="M6.17534 4.57552C6.0552 4.57552 5.94256 4.55817 5.84344 4.5227C5.89526 4.23749 6.07172 3.92662 6.34655 3.65801C6.71899 3.58255 7.01334 3.39391 7.12973 3.15623C7.32195 3.08455 7.51119 3.04834 7.68389 3.04834C7.80404 3.04834 7.91591 3.06644 8.01578 3.10115C7.9497 3.46106 7.68538 3.86173 7.2769 4.16656C6.91422 4.43669 6.51324 4.57552 6.17534 4.57552Z" fill="#F9F0E2"/>
<path d="M6.34662 3.658C6.4187 3.58783 6.49679 3.52067 6.58164 3.45804C6.7596 3.32524 6.94582 3.22489 7.12979 3.15623C7.0134 3.39391 6.71906 3.58255 6.34662 3.658Z" fill="#FBF4E9"/>
<path d="M9.61595 3.54787C9.34112 3.54787 9.10758 3.45655 8.96942 3.26943C8.81849 3.06495 8.80872 2.78504 8.9146 2.4953C9.06178 2.53001 9.20595 2.5466 9.34261 2.5466C9.68577 2.5466 9.98162 2.44247 10.1476 2.25988C10.2091 2.5632 10.5478 2.80992 10.9961 2.89519C10.9127 2.9812 10.8196 3.06345 10.7175 3.1389C10.3548 3.40902 9.95385 3.54787 9.61595 3.54787ZM10.2782 1.80036C10.2497 1.65172 10.1619 1.50383 10.0304 1.37255C10.1859 1.30313 10.3413 1.2571 10.4892 1.23371C10.5726 1.32199 10.671 1.40574 10.7828 1.48044C10.5681 1.55212 10.3916 1.66379 10.2782 1.80036Z" fill="#F6EBD9"/>
<path d="M10.9961 2.89517C10.5478 2.80991 10.2092 2.56318 10.1476 2.25986C10.2077 2.19422 10.2505 2.11725 10.2722 2.03199C10.2918 1.95578 10.2925 1.87806 10.2782 1.80034C10.3916 1.66377 10.5681 1.5521 10.7829 1.48042C10.8482 1.52494 10.9188 1.5657 10.9931 1.60342C11.1493 1.68189 11.3085 1.73546 11.4616 1.76564C11.5217 2.10518 11.346 2.53451 10.9961 2.89517Z" fill="#F9F0E2"/>
<path d="M20.0886 2.7812C19.9858 2.7812 19.8881 2.76838 19.7995 2.74272C19.8889 2.63483 19.94 2.51259 19.94 2.38281C19.94 2.11118 19.7177 1.87277 19.3835 1.7362C19.4932 1.42986 19.7327 1.11144 20.0721 0.857918C20.4348 0.588552 20.835 0.449725 21.1729 0.449725C21.4477 0.449725 21.6813 0.541774 21.8202 0.728896C21.8675 0.792277 21.9005 0.86396 21.9208 0.940168C21.8728 0.971103 21.8255 1.00355 21.7789 1.03826C21.2217 1.45325 20.9326 2.04555 21.0475 2.4711C20.7246 2.67634 20.383 2.7812 20.0886 2.7812Z" fill="#F6EBD9"/>
<path d="M19.7996 2.74274C19.6517 2.69897 19.5278 2.619 19.4407 2.50204C19.292 2.29983 19.2808 2.02292 19.3836 1.73619C19.7178 1.87277 19.9401 2.11119 19.9401 2.38282C19.9401 2.5126 19.889 2.63484 19.7996 2.74274Z" fill="#F9F0E2"/>
<path d="M10.8002 13.8782C10.5253 13.8782 10.2918 13.7861 10.1536 13.599C10.1033 13.5303 10.068 13.4534 10.0485 13.3704C10.433 13.0535 10.6703 12.6536 10.7093 12.302C10.9766 12.2763 11.1914 12.1623 11.289 11.9654C11.3371 11.8688 11.3521 11.7625 11.3386 11.6515C11.5285 11.5821 11.7148 11.5467 11.8852 11.5467C11.8965 11.5467 11.9077 11.5467 11.919 11.5474C11.919 11.7044 11.9926 11.85 12.1195 11.9715C12.136 12.1171 12.2164 12.2514 12.3425 12.3631C11.8867 12.4725 11.5623 12.7524 11.5623 13.0806C11.5623 13.2526 11.6517 13.4119 11.8019 13.5394C11.467 13.7635 11.1073 13.8782 10.8002 13.8782Z" fill="#F6EBD9"/>
<path d="M12.3425 12.3631C12.2164 12.2514 12.136 12.1171 12.1195 11.9715C12.2502 12.096 12.4372 12.1948 12.6564 12.2536C12.6564 12.2748 12.6549 12.2959 12.6527 12.317C12.5445 12.3238 12.4409 12.3397 12.3425 12.3631Z" fill="#F9F0E2"/>
<path d="M5.28402 12.8467C5.0092 12.8467 4.77567 12.7547 4.63751 12.5676C4.3319 12.1526 4.60446 11.4305 5.24422 10.9408C5.41693 11.0012 5.61516 11.0351 5.82616 11.0351C6.27219 11.0351 6.6619 10.8819 6.87065 10.6533C6.92621 10.6918 6.97502 10.7386 7.01556 10.7929C7.16424 10.9944 7.17626 11.2675 7.07639 11.5519C6.47868 11.5972 6.01463 11.9202 6.01463 12.3133C6.01463 12.4204 6.04843 12.5215 6.11075 12.6143C5.82842 12.7675 5.53857 12.8467 5.28402 12.8467Z" fill="#F6EBD9"/>
<path d="M5.82626 11.0351C5.61526 11.0351 5.41703 11.0011 5.24432 10.9408C5.25258 10.9347 5.2601 10.9287 5.26836 10.9227C5.63104 10.6533 6.03127 10.5145 6.36917 10.5145C6.5629 10.5145 6.73635 10.5605 6.87076 10.6533C6.66201 10.8819 6.27229 11.0351 5.82626 11.0351Z" fill="#F9F0E2"/>
<path d="M6.11076 12.6143C6.04844 12.5215 6.01465 12.4204 6.01465 12.3133C6.01465 11.9202 6.4787 11.5972 7.07641 11.5519C6.96828 11.8605 6.72725 12.1827 6.38484 12.4378C6.29549 12.5049 6.20312 12.5638 6.11076 12.6143Z" fill="#F9F0E2"/>
<path d="M2.22569 12.314C1.95012 12.314 1.71659 12.222 1.57842 12.0341C1.26906 11.6153 1.55214 10.8804 2.20918 10.3915C2.52831 10.153 2.87671 10.0172 3.18683 9.98854C3.15079 10.2006 3.18459 10.3983 3.29797 10.5522C3.43689 10.7401 3.67041 10.8321 3.94524 10.8321C3.98579 10.8321 4.02634 10.8299 4.06764 10.8261C4.00606 11.1898 3.741 11.5965 3.32651 11.9058C2.96382 12.1752 2.5636 12.314 2.22569 12.314Z" fill="#F6EBD9"/>
<path d="M13.7325 2.62053C13.5267 2.62053 13.297 2.57224 13.0695 2.47264C13.1513 2.48396 13.2361 2.49 13.3225 2.49C13.3758 2.49 13.4284 2.48773 13.4802 2.4832C13.5658 2.53753 13.6649 2.58356 13.773 2.61977C13.7595 2.62053 13.746 2.62053 13.7325 2.62053ZM12.5025 1.15974C12.4965 1.0858 12.4762 1.00883 12.4447 0.93187C12.5371 0.880561 12.6475 0.847376 12.7691 0.83304C12.7706 0.900193 12.7856 0.965825 12.8119 1.0277C12.6978 1.06165 12.5941 1.10617 12.5025 1.15974Z" fill="#F6EBD9"/>
<path d="M12.8118 1.02769C12.7855 0.965823 12.7705 0.900191 12.769 0.833037C12.8155 0.827001 12.8636 0.824729 12.9131 0.824729C13.1204 0.824729 13.3524 0.873773 13.5822 0.974126C13.4988 0.962053 13.4117 0.956018 13.3224 0.956018C13.1399 0.956018 12.9672 0.981668 12.8118 1.02769Z" fill="#F9F0E2"/>
<path d="M13.3224 2.49001C13.236 2.49001 13.1512 2.48397 13.0693 2.47265C13.0371 2.45907 13.0048 2.44397 12.9725 2.42737C12.8103 2.34588 12.6669 2.2463 12.5475 2.13613C12.5385 1.9558 12.4326 1.79131 12.2606 1.66304C12.3425 1.60871 12.4078 1.53854 12.4506 1.45252C12.4957 1.36273 12.5114 1.26312 12.5024 1.15975C12.594 1.10618 12.6977 1.06166 12.8118 1.02771C12.8951 1.22162 13.0949 1.38461 13.3599 1.48421C13.212 1.61172 13.1249 1.76942 13.1249 1.93919C13.1249 2.15197 13.2608 2.34437 13.4801 2.48321C13.4283 2.48774 13.3757 2.49001 13.3224 2.49001Z" fill="#F9F0E2"/>
<path d="M13.3599 1.48418C13.0948 1.38458 12.8951 1.2216 12.8117 1.02768C12.9671 0.981657 13.1398 0.956006 13.3223 0.956006C13.4117 0.956006 13.4988 0.962042 13.5821 0.974114C13.6122 0.986941 13.643 1.00128 13.673 1.01637C13.7834 1.07221 13.8855 1.13634 13.9763 1.20576C13.7263 1.2548 13.5115 1.35364 13.3599 1.48418Z" fill="#FBF4E9"/>
<path d="M12.5475 2.13614C12.3965 1.9973 12.2847 1.84185 12.2208 1.68717C12.2343 1.67963 12.2479 1.67134 12.2606 1.66304C12.4326 1.79131 12.5385 1.9558 12.5475 2.13614Z" fill="#FBF4E9"/>
<path d="M10.2985 0.244446C10.4314 0.0837403 10.662 -6.88434e-06 10.933 -6.88434e-06C11.1373 -6.88434e-06 11.3656 0.0475206 11.5916 0.145604C11.1478 0.15843 10.7183 0.192386 10.2985 0.244446Z" fill="white"/>
<path d="M12.1367 1.58304C11.9242 1.46458 11.6464 1.39289 11.3423 1.39289C11.313 1.39289 11.2837 1.39365 11.2544 1.39516C11.1147 1.27594 10.9218 1.21708 10.701 1.21708C10.6327 1.21708 10.5621 1.22236 10.4893 1.23368C10.2167 0.944687 10.1056 0.604402 10.2355 0.342576C10.2527 0.307113 10.2745 0.274664 10.2985 0.244482C10.7183 0.192419 11.1478 0.15846 11.5916 0.145633C11.6254 0.159969 11.6592 0.175823 11.6929 0.192423C12.0609 0.377286 12.3305 0.654943 12.4446 0.931859C12.344 0.98845 12.2644 1.06693 12.2148 1.16653C12.1645 1.26839 12.1503 1.38232 12.1675 1.50003C12.1548 1.52719 12.1442 1.55437 12.1367 1.58304Z" fill="#F6EBD9"/>
<path d="M12.1954 1.61775C12.1766 1.60565 12.157 1.59431 12.1367 1.58296C12.1442 1.55422 12.1547 1.52698 12.1675 1.49975C12.1736 1.53908 12.1833 1.57842 12.1954 1.61775Z" fill="#F9F0E2"/>
<path d="M11.7522 1.79506C11.6591 1.79506 11.5615 1.78524 11.4616 1.76562C11.4443 1.66677 11.4068 1.57549 11.3475 1.4955C11.3204 1.45853 11.2889 1.42457 11.2543 1.39514C11.2836 1.39363 11.3129 1.39288 11.3422 1.39288C11.6463 1.39288 11.9241 1.46456 12.1366 1.58303C12.1231 1.6283 12.1164 1.67507 12.1164 1.72261C12.1164 1.72713 12.1164 1.73092 12.1164 1.73545C12.009 1.77544 11.8851 1.79506 11.7522 1.79506Z" fill="#F9F0E2"/>
<path d="M12.1164 1.73547C12.1164 1.73094 12.1164 1.72714 12.1164 1.7226C12.1164 1.67495 12.1232 1.62806 12.1367 1.58267C12.157 1.59402 12.1766 1.60536 12.1954 1.61747C12.203 1.64092 12.2113 1.66436 12.221 1.68705C12.1887 1.70521 12.1533 1.72186 12.1164 1.73547Z" fill="#FBF4E9"/>
<path d="M10.7829 1.48042C10.671 1.40573 10.5726 1.32197 10.4893 1.2337C10.5621 1.22238 10.6327 1.2171 10.701 1.2171C10.9218 1.2171 11.1147 1.27596 11.2544 1.39517C11.0855 1.40272 10.9255 1.43289 10.7829 1.48042Z" fill="#F9F0E2"/>
<path d="M11.4616 1.76561C11.3084 1.73543 11.1493 1.68186 10.9931 1.60339C10.9187 1.56567 10.8482 1.52491 10.7828 1.4804C10.9255 1.43286 11.0854 1.40269 11.2544 1.39514C11.2889 1.42457 11.3205 1.45853 11.3475 1.4955C11.4068 1.57548 11.4443 1.66677 11.4616 1.76561Z" fill="#FBF4E9"/>
<path d="M12.1675 1.50003C12.1503 1.38232 12.1645 1.26839 12.2148 1.16653C12.2644 1.06693 12.344 0.988449 12.4446 0.931859C12.4761 1.00882 12.4964 1.08579 12.5024 1.15973C12.3477 1.25103 12.2306 1.36799 12.1675 1.50003Z" fill="#F9F0E2"/>
<path d="M12.2606 1.66301C12.2396 1.64716 12.2178 1.63282 12.1953 1.61773C12.1832 1.57849 12.1735 1.53925 12.1675 1.50002C12.2306 1.36797 12.3477 1.25102 12.5024 1.15972C12.5114 1.26309 12.4956 1.3627 12.4506 1.45249C12.4078 1.53851 12.3424 1.60868 12.2606 1.66301Z" fill="#FBF4E9"/>
<path d="M12.2209 1.68713C12.2111 1.66444 12.2028 1.641 12.1953 1.61755C12.2179 1.63267 12.2397 1.64705 12.2608 1.66294C12.248 1.67126 12.2345 1.67957 12.2209 1.68713Z" fill="#FCF7EE"/>
<path d="M16.9508 3.00531C16.6459 2.97966 16.3388 2.96081 16.0317 2.94798C15.9693 2.92459 15.907 2.89742 15.8454 2.86649C15.6082 2.74727 15.4122 2.58958 15.2725 2.4183C15.4377 2.28701 15.5361 2.121 15.5361 1.93916C15.5361 1.74373 15.4204 1.56491 15.2305 1.42909C15.3656 1.31893 15.5616 1.26309 15.7839 1.26309C15.8056 1.26309 15.8274 1.2631 15.85 1.26461C16.0354 1.53247 16.4544 1.72033 16.944 1.7226C17.2917 2.02969 17.4486 2.42206 17.3029 2.71558C17.2346 2.85291 17.11 2.95023 16.9508 3.00531Z" fill="#F6EBD9"/>
<path d="M16.6037 3.0589C16.425 3.0589 16.229 3.02268 16.0316 2.94798C16.3387 2.96081 16.6458 2.97965 16.9507 3.00531C16.8478 3.04077 16.7299 3.0589 16.6037 3.0589Z" fill="white"/>
<path d="M16.9438 1.72261C16.4543 1.72035 16.0353 1.53248 15.8498 1.26462C16.0683 1.27518 16.3101 1.33781 16.5451 1.45552C16.6961 1.53173 16.8297 1.62226 16.9438 1.72261Z" fill="#F9F0E2"/>
<path d="M22.5501 2.96686C22.4901 2.92687 22.4345 2.8846 22.3827 2.84084C22.5554 2.77293 22.7296 2.6771 22.8963 2.55336C23.2139 2.31568 23.4437 2.02142 23.5623 1.73319C23.6277 1.77092 23.69 1.81241 23.7478 1.85542C23.8266 2.05914 23.9911 2.26439 24.2164 2.43416C24.2404 2.49678 24.2569 2.55865 24.2644 2.61901C24.0849 2.5511 23.8755 2.51263 23.6517 2.51263C23.1614 2.51263 22.7379 2.699 22.5501 2.96686Z" fill="#F6EBD9"/>
<path d="M10.6949 12.0243C10.6746 11.9413 10.6401 11.8643 10.589 11.7957C10.4508 11.6085 10.2181 11.5165 9.94324 11.5165C9.73375 11.5165 9.49947 11.5701 9.26519 11.6757C9.17208 11.564 9.10301 11.4456 9.06171 11.3286C9.18861 11.2713 9.28773 11.183 9.34554 11.0668C9.41613 10.9242 9.41614 10.7589 9.35757 10.5922C9.47546 10.5394 9.61587 10.5122 9.77056 10.5122C10.0063 10.5122 10.2729 10.5748 10.5319 10.7046C10.9922 10.9363 11.2986 11.3128 11.3384 11.6516C11.1522 11.7202 10.963 11.8213 10.7835 11.9549C10.7527 11.9775 10.7234 12.0009 10.6949 12.0243Z" fill="#F6EBD9"/>
<path d="M10.7092 12.302C10.7204 12.2046 10.7159 12.1111 10.6949 12.0243C10.7234 12.0009 10.7527 11.9775 10.7835 11.9549C10.963 11.8213 11.1522 11.7202 11.3384 11.6515C11.3519 11.7625 11.3369 11.8688 11.2889 11.9654C11.1912 12.1624 10.9765 12.2763 10.7092 12.302Z" fill="#F9F0E2"/>
<path d="M8.64733 11.4093C8.4123 11.4093 8.14649 11.3467 7.88818 11.2177C7.28897 10.9151 6.95182 10.3688 7.11927 9.98025C7.50823 9.96214 7.84612 9.82782 8.04586 9.63089C8.22157 9.6573 8.40704 9.7154 8.58951 9.8067C8.97772 10.0014 9.25631 10.3002 9.35768 10.5922C9.23078 10.6488 9.13166 10.737 9.07384 10.8532C9.00326 10.9958 9.004 11.1611 9.06182 11.3286C8.94393 11.3822 8.80201 11.4093 8.64733 11.4093Z" fill="#F6EBD9"/>
<path d="M7.11932 9.98027C7.12308 9.97197 7.12683 9.96367 7.13058 9.95612C7.24246 9.73127 7.50678 9.61357 7.82741 9.61357C7.898 9.61357 7.97083 9.6196 8.04592 9.63092C7.84618 9.82785 7.50829 9.96216 7.11932 9.98027Z" fill="#F9F0E2"/>
<path d="M9.06188 11.3286C9.00407 11.1611 9.00333 10.9958 9.07391 10.8532C9.13172 10.737 9.23084 10.6488 9.35773 10.5922C9.4163 10.7589 9.41628 10.9242 9.3457 11.0668C9.28789 11.183 9.18878 11.2712 9.06188 11.3286Z" fill="#F9F0E2"/>
<path d="M3.32198 7.99051C3.22211 7.95505 3.11022 7.9377 2.99008 7.9377C2.93001 7.9377 2.86844 7.94222 2.80461 7.95052C2.78133 7.94524 2.75806 7.93844 2.73403 7.93165C2.64092 7.6306 2.35708 7.31897 1.95611 7.11751C1.85098 7.0647 1.74435 7.0232 1.63922 6.99227C1.59042 6.83457 1.59342 6.67914 1.6595 6.54484C1.77213 6.31999 2.03645 6.20303 2.35783 6.20303C2.59361 6.20303 2.85943 6.26566 3.11774 6.3962C3.72897 6.70254 4.06837 7.26692 3.87539 7.6555C3.78077 7.8464 3.57728 7.96033 3.32198 7.99051Z" fill="#F6EBD9"/>
<path d="M5.58893 5.51717C5.36817 5.34966 5.03552 5.24252 4.66458 5.24252C4.45883 5.24252 4.26435 5.27572 4.09465 5.33382C3.62534 5.0139 3.38881 4.54156 3.55701 4.20126C3.66889 3.97566 3.93321 3.8587 4.25384 3.8587C4.48962 3.8587 4.75544 3.92133 5.01449 4.05111C5.62572 4.35821 5.96587 4.92184 5.77139 5.31118C5.73009 5.39493 5.66777 5.46359 5.58893 5.51717Z" fill="#F6EBD9"/>
<path d="M5.07302 5.6545C4.83724 5.6545 4.57217 5.59186 4.31461 5.46283C4.23652 5.42359 4.16294 5.38059 4.0946 5.3338C4.26431 5.2757 4.45878 5.2425 4.66453 5.2425C5.03547 5.2425 5.36812 5.34964 5.58888 5.51716C5.45522 5.60771 5.27501 5.6545 5.07302 5.6545Z" fill="#F9F0E2"/>
<path d="M8.91465 2.49529C8.90263 2.49227 8.89062 2.48924 8.87786 2.48622C8.70965 2.4417 8.55496 2.37833 8.4198 2.30061C8.42956 2.30061 8.43933 2.30136 8.4491 2.30136C8.77123 2.30136 9.03555 2.18365 9.14743 1.95805C9.30362 1.64341 9.11289 1.21559 8.71191 0.900948C8.74195 0.899439 8.77273 0.897927 8.80352 0.897927C8.95219 0.897927 9.10913 0.917548 9.26907 0.958293C9.58295 1.04054 9.84877 1.19144 10.0305 1.37253C9.88482 1.43667 9.73989 1.52118 9.60023 1.62531C9.26383 1.87581 9.02578 2.19121 8.91465 2.49529Z" fill="#F6EBD9"/>
<path d="M9.34255 2.5466C9.20589 2.5466 9.06172 2.53001 8.91455 2.4953C9.02568 2.19122 9.26372 1.87582 9.60012 1.62531C9.73978 1.52118 9.8847 1.43667 10.0304 1.37253C10.1618 1.50382 10.2496 1.6517 10.2781 1.80035C10.188 1.90749 10.137 2.02973 10.137 2.16027C10.137 2.19422 10.1407 2.22743 10.1475 2.25987C9.98155 2.44247 9.6857 2.5466 9.34255 2.5466Z" fill="#F9F0E2"/>
<path d="M10.1476 2.25987C10.1408 2.22743 10.1371 2.19422 10.1371 2.16027C10.1371 2.02974 10.1881 1.9075 10.2782 1.80036C10.2925 1.87807 10.2918 1.9558 10.2722 2.032C10.2505 2.11726 10.2077 2.19423 10.1476 2.25987Z" fill="#FBF4E9"/>
<path d="M17.6776 2.01311C17.5229 1.9203 17.3892 1.81089 17.2826 1.69394C17.7887 1.60264 18.1604 1.30761 18.1604 0.955996C18.1604 0.780188 18.0673 0.617967 17.9111 0.48894C18.1018 0.511576 18.3053 0.571933 18.505 0.670778C19.0074 0.924303 19.3265 1.35062 19.316 1.71054C19.1433 1.65017 18.9451 1.61546 18.7341 1.61546C18.279 1.61546 17.8826 1.77618 17.6776 2.01311Z" fill="#F6EBD9"/>
<path d="M17.2825 1.69397C17.0227 1.40876 16.9198 1.07751 17.0475 0.821724C17.1586 0.596118 17.4229 0.479162 17.7443 0.479162C17.7984 0.479162 17.854 0.48219 17.911 0.488981C18.0672 0.618006 18.1603 0.780227 18.1603 0.956033C18.1603 1.30765 17.7886 1.60267 17.2825 1.69397Z" fill="#F9F0E2"/>
<path d="M18.5635 2.27492C18.3285 2.27492 18.0627 2.21229 17.8044 2.08251C17.7609 2.06063 17.718 2.03724 17.6775 2.0131C17.8825 1.77618 18.279 1.61546 18.734 1.61546C18.945 1.61546 19.1432 1.65017 19.3159 1.71053C19.3137 1.78825 19.2957 1.86294 19.2619 1.9316C19.15 2.15721 18.8849 2.27492 18.5635 2.27492Z" fill="#F9F0E2"/>
<path d="M22.3556 4.44652C22.2002 4.44652 22.0312 4.41861 21.86 4.36277C21.658 4.22394 21.4335 4.09642 21.1894 3.98022C20.847 3.67388 20.6931 3.28453 20.838 2.99252C20.9026 2.86123 21.0205 2.76692 21.1714 2.71033C21.3118 2.87859 21.5349 2.96084 21.7954 2.96084C21.9621 2.96084 22.1446 2.92763 22.3301 2.86048C22.4029 2.89896 22.472 2.94121 22.5365 2.98648C22.4772 3.07702 22.4449 3.17588 22.4449 3.28001C22.4449 3.57654 22.7108 3.83459 23.099 3.96136C23.0907 4.00738 23.0765 4.0519 23.0569 4.09415C22.8061 4.16433 22.6004 4.28731 22.4735 4.44123C22.4352 4.445 22.3961 4.44652 22.3556 4.44652Z" fill="#F6EBD9"/>
<path d="M21.86 4.36273C21.857 4.36198 21.854 4.36122 21.851 4.35971C21.6527 4.22389 21.4334 4.09939 21.1954 3.98546C21.1932 3.98319 21.1916 3.98168 21.1894 3.98017C21.4334 4.09637 21.658 4.22389 21.86 4.36273Z" fill="white"/>
<path d="M21.851 4.35973C21.7654 4.33181 21.6798 4.29633 21.595 4.25333C21.444 4.17787 21.3096 4.08584 21.1955 3.98549C21.4335 4.09942 21.6528 4.22391 21.851 4.35973Z" fill="#FFCDB1"/>
<path d="M22.4735 4.44121C22.6004 4.28728 22.8062 4.16431 23.0569 4.09413C23.0554 4.09715 23.0539 4.10092 23.0524 4.10393C22.9548 4.30087 22.7408 4.41555 22.4735 4.44121Z" fill="#F9F0E2"/>
<path d="M1.90506 10.2692C1.63023 10.2692 1.39671 10.1772 1.25779 9.99007C1.00775 9.65053 1.14516 9.10424 1.55589 8.6485C1.71508 8.69679 1.87127 8.72093 2.01619 8.72093C2.33682 8.72093 2.60189 8.60324 2.71302 8.37764C2.77534 8.25238 2.78285 8.10826 2.74306 7.96038C2.76333 7.9566 2.78435 7.95358 2.80462 7.95056C2.93378 7.983 3.05917 7.99886 3.17781 7.99886C3.22737 7.99886 3.27543 7.99583 3.32199 7.99055C3.45039 8.03582 3.55852 8.11127 3.63662 8.21616C3.68768 8.28557 3.72221 8.36405 3.74173 8.4478C3.08621 8.45459 2.55759 8.79488 2.55759 9.21516C2.55759 9.46717 2.74906 9.69128 3.04416 9.83087C3.0314 9.84068 3.01863 9.85048 3.00587 9.86029C2.64319 10.1304 2.24296 10.2692 1.90506 10.2692Z" fill="#F6EBD9"/>
<path d="M3.04414 9.83087C2.74903 9.69128 2.55756 9.46717 2.55756 9.21516C2.55756 8.79488 3.08618 8.45459 3.74172 8.4478C3.79654 8.6802 3.73497 8.96012 3.57728 9.23251C3.49092 9.33136 3.41733 9.43398 3.35726 9.53735C3.2664 9.64072 3.16203 9.73957 3.04414 9.83087Z" fill="#F9F0E2"/>
<path d="M3.17781 7.99886C3.05917 7.99886 2.93378 7.983 2.80463 7.95056C2.86845 7.94226 2.93002 7.93774 2.99009 7.93774C3.11023 7.93774 3.22211 7.95509 3.32198 7.99055C3.27542 7.99583 3.22736 7.99886 3.17781 7.99886Z" fill="#F9F0E2"/>
<path d="M5.91477 9.50336C5.88548 9.50185 5.85619 9.50109 5.82616 9.50109C5.80063 9.50109 5.77509 9.50185 5.74956 9.5026C5.83667 9.23097 5.8194 8.97216 5.67673 8.77975C5.53856 8.59263 5.30504 8.50058 5.03096 8.50058C4.86201 8.50058 4.67804 8.5353 4.49107 8.6032C4.37168 8.54586 4.23426 8.50133 4.08558 8.47567C4.07282 8.36551 4.08783 8.26064 4.13514 8.16557C4.24627 7.93997 4.51059 7.82301 4.83197 7.82301C4.97464 7.82301 5.12858 7.84564 5.28476 7.89242C5.3959 7.99806 5.54533 8.06144 5.71728 8.08332C5.96357 8.23121 6.15656 8.42136 6.27445 8.61829C6.00112 8.75863 5.82616 8.97367 5.82616 9.21512C5.82616 9.31698 5.8577 9.41432 5.91477 9.50336Z" fill="#F6EBD9"/>
<path d="M5.70685 9.61731C5.72341 9.57873 5.73771 9.54015 5.74975 9.50233C5.77535 9.50157 5.80094 9.50082 5.82654 9.50082C5.85665 9.50082 5.88601 9.50157 5.91537 9.50309C5.93043 9.52729 5.94849 9.5515 5.96806 9.57495C5.88827 9.59915 5.80019 9.61353 5.70685 9.61731Z" fill="#F9F0E2"/>
<path d="M6.10024 9.52074C6.04017 9.51168 5.97785 9.50565 5.91478 9.50338C5.85771 9.41435 5.82617 9.31701 5.82617 9.21515C5.82617 8.97369 6.00113 8.75866 6.27445 8.61831C6.40961 8.84467 6.44565 9.0816 6.35029 9.27476C6.29773 9.38115 6.21062 9.46339 6.10024 9.52074Z" fill="#F9F0E2"/>
<path d="M5.96742 9.57504C5.94785 9.55159 5.92979 9.52739 5.91473 9.50318C5.97797 9.50545 6.04044 9.5115 6.10066 9.52058C6.05926 9.54252 6.01485 9.56067 5.96742 9.57504Z" fill="#FBF4E9"/>
<path d="M4.17124 8.75111C4.12468 8.65906 4.09539 8.56549 4.08563 8.47571C4.23431 8.50136 4.37173 8.54589 4.49112 8.60323C4.38449 8.64171 4.27711 8.69151 4.17124 8.75111Z" fill="#F9F0E2"/>
<path d="M5.71724 8.08334C5.54529 8.06146 5.39586 7.99808 5.28473 7.89244C5.38685 7.92337 5.49047 7.96413 5.59259 8.01544C5.63539 8.03657 5.67669 8.05995 5.71724 8.08334Z" fill="#F9F0E2"/>
<path d="M15.8484 12.5789C15.7463 12.5789 15.6374 12.5668 15.5263 12.5426C15.4429 12.4815 15.3513 12.4249 15.2522 12.3759C15.1073 12.3027 14.9594 12.2514 14.8167 12.2197C14.7041 12.1375 14.6072 12.0461 14.5269 11.9503C14.5276 11.939 14.5284 11.9269 14.5284 11.9156C14.5284 11.7587 14.454 11.6131 14.3279 11.4916C14.3219 11.4335 14.3046 11.3776 14.2791 11.3233C14.2843 11.2539 14.3016 11.1875 14.3324 11.1256C14.4435 10.9 14.7078 10.7831 15.0292 10.7831C15.2642 10.7831 15.5308 10.8457 15.7906 10.9762C16.1135 11.1384 16.3605 11.3724 16.4927 11.6153C16.0759 11.736 15.7869 12.0031 15.7869 12.3133C15.7869 12.4068 15.8124 12.4959 15.8604 12.5789C15.8567 12.5789 15.8529 12.5789 15.8484 12.5789Z" fill="#F6EBD9"/>
<path d="M14.5268 11.9503C14.436 11.8424 14.3684 11.7285 14.3264 11.6153C14.3294 11.5927 14.3309 11.5693 14.3309 11.5467C14.3309 11.5278 14.3301 11.5097 14.3279 11.4916C14.454 11.6131 14.5283 11.7587 14.5283 11.9156C14.5283 11.9269 14.5276 11.939 14.5268 11.9503Z" fill="#F9F0E2"/>
<path d="M15.313 13.9778C15.0772 13.9778 14.8107 13.9152 14.5516 13.7854C14.288 13.6526 14.0755 13.4722 13.9336 13.2798C13.9607 13.2165 13.9749 13.1493 13.9749 13.0806C13.9749 12.9161 13.8931 12.763 13.7542 12.6377C13.7542 12.6355 13.7549 12.6332 13.7557 12.6309C14.077 12.5525 14.3323 12.3887 14.4525 12.1835C14.4653 12.1827 14.478 12.1827 14.4908 12.1827C14.5944 12.1827 14.704 12.1948 14.8167 12.2197C14.9 12.2808 14.9909 12.3367 15.0892 12.3865C15.2349 12.4596 15.3828 12.511 15.5263 12.5426C15.9595 12.8596 16.1713 13.3085 16.0098 13.6352C15.898 13.8608 15.6336 13.9778 15.313 13.9778Z" fill="#F6EBD9"/>
<path d="M13.7556 12.6309C13.7646 12.594 13.7774 12.5585 13.7939 12.5238C13.9013 12.3088 14.1491 12.1918 14.4525 12.1835C14.3323 12.3887 14.077 12.5525 13.7556 12.6309Z" fill="#F9F0E2"/>
<path d="M15.5263 12.5427C15.3829 12.511 15.2349 12.4597 15.0893 12.3865C14.9909 12.3367 14.9001 12.2808 14.8167 12.2197C14.9594 12.2514 15.1073 12.3027 15.2522 12.3759C15.3513 12.425 15.443 12.4815 15.5263 12.5427Z" fill="#F9F0E2"/>
<path d="M20.9821 13.6631C21.0362 13.5756 21.0662 13.4805 21.0662 13.3802C21.0662 12.9554 20.5256 12.6136 19.8595 12.6136C19.5975 12.6136 19.3557 12.6664 19.1574 12.7562C19.1116 12.6392 19.0944 12.5223 19.1086 12.4136C19.1199 12.4136 19.1319 12.4136 19.1432 12.4136C19.4646 12.4136 19.7304 12.2959 19.8415 12.0711C19.867 12.0198 19.8828 11.9654 19.8903 11.9096C20.1171 11.9156 20.3694 11.9783 20.6164 12.1012C20.8289 12.2084 21.0084 12.3465 21.1443 12.4974C21.1353 12.5351 21.1308 12.5736 21.1308 12.6136C21.1308 12.8067 21.2427 12.9825 21.4274 13.1176C21.4282 13.2029 21.4109 13.2851 21.3741 13.3613C21.2997 13.5092 21.1601 13.6111 20.9821 13.6631Z" fill="#F6EBD9"/>
<path d="M22.3549 11.7783C22.1199 11.7783 21.8533 11.7149 21.595 11.5859C20.9838 11.2773 20.6444 10.7144 20.8381 10.3243C20.9042 10.19 21.0258 10.0934 21.1813 10.0384C21.0979 10.3062 21.1159 10.562 21.2564 10.7529C21.3953 10.9408 21.6288 11.0321 21.9036 11.0321C22.0914 11.0321 22.2979 10.9898 22.5066 10.9053C22.4668 10.9815 22.445 11.063 22.445 11.1483C22.445 11.358 22.5779 11.5482 22.7919 11.6863C22.6703 11.7474 22.5201 11.7783 22.3549 11.7783Z" fill="#F6EBD9"/>
<path d="M27.9438 8.09995C28.0564 7.87208 28.1608 7.64271 28.2562 7.41182C28.299 7.56197 28.2929 7.7091 28.2299 7.83737C28.1713 7.95432 28.0714 8.0426 27.9438 8.09995Z" fill="#6B655B"/>
<path d="M27.53 8.18068C27.4467 8.18068 27.3588 8.17237 27.2695 8.15653C27.2507 7.76719 26.7762 7.45105 26.1747 7.41635C26.1349 7.37862 26.0921 7.34314 26.047 7.30843C25.9472 7.10546 25.9284 6.89948 26.0132 6.72745C26.1251 6.50184 26.3894 6.38413 26.7108 6.38413C26.9466 6.38413 27.2132 6.44751 27.4722 6.57729C27.8822 6.78328 28.1698 7.10472 28.2562 7.41181C28.1608 7.6427 28.0564 7.87207 27.9438 8.09994C27.8266 8.15351 27.6847 8.18068 27.53 8.18068Z" fill="#F6EBD9"/>
<path d="M23.9415 9.83762C23.922 9.82781 23.9017 9.81876 23.8822 9.80895C23.8206 9.77726 23.7613 9.74406 23.7057 9.70859C23.714 9.68219 23.7215 9.65653 23.7275 9.63088C23.9258 9.56297 24.1278 9.45734 24.3185 9.31473C24.5903 9.11176 24.7983 8.86654 24.9267 8.61981C25.146 8.79863 25.2991 9.01065 25.3622 9.21739C25.3389 9.21588 25.3149 9.21588 25.2909 9.21588C24.953 9.21588 24.5527 9.35473 24.1901 9.6241C24.1 9.69125 24.0174 9.76292 23.9415 9.83762Z" fill="#F6EBD9"/>
<path d="M26.2317 2.9525C26.0117 2.85441 25.7895 2.80312 25.5875 2.79708C25.5732 2.78878 25.5597 2.78047 25.5462 2.77217C25.7376 2.72237 25.8871 2.61824 25.9644 2.46356C26.1394 2.11044 25.8781 1.61471 25.3719 1.2963C25.4583 1.27442 25.5522 1.26311 25.6521 1.26311C25.8878 1.26311 26.1544 1.32574 26.4142 1.45552C26.837 1.66829 27.1298 2.0033 27.2057 2.31945C26.9916 2.38585 26.7709 2.49827 26.5621 2.65295C26.4382 2.74576 26.3279 2.84686 26.2317 2.9525Z" fill="#F6EBD9"/>
<path d="M19.1088 12.4136C19.1036 12.4136 19.0991 12.4136 19.0938 12.4129C19.0991 12.4106 19.1043 12.4083 19.1096 12.4061C19.1096 12.4083 19.1088 12.4106 19.1088 12.4136ZM19.7997 11.9103C19.8334 11.8749 19.865 11.8394 19.895 11.8032C19.8965 11.8394 19.8958 11.8749 19.8905 11.9096C19.8792 11.9088 19.8672 11.9088 19.8552 11.9088C19.8364 11.9088 19.8184 11.9096 19.7997 11.9103ZM17.6844 11.5874C17.5635 11.3701 17.5357 11.146 17.6273 10.9611C17.7384 10.7355 18.0035 10.6178 18.3249 10.6178C18.3602 10.6178 18.3962 10.6193 18.4323 10.6224C18.4187 10.6322 18.4052 10.642 18.3925 10.6518C18.0313 10.9212 17.7835 11.2637 17.6844 11.5874Z" fill="#F6EBD9"/>
<path d="M19.1434 12.4136C19.1321 12.4136 19.1201 12.4136 19.1088 12.4136C19.1088 12.4106 19.1096 12.4083 19.1096 12.4061C19.2447 12.3434 19.3799 12.2635 19.5098 12.1661C19.6172 12.0869 19.714 12.0001 19.7996 11.9103C19.8184 11.9096 19.8364 11.9088 19.8552 11.9088C19.8672 11.9088 19.8792 11.9088 19.8905 11.9096C19.883 11.9654 19.8672 12.0198 19.8417 12.0711C19.7305 12.2959 19.4647 12.4136 19.1434 12.4136Z" fill="#F9F0E2"/>
<path d="M24.3043 7.23375C24.1774 7.2013 24.0482 7.15377 23.9206 7.08964C23.3086 6.78178 22.9707 6.21814 23.1629 5.8288C23.223 5.70807 23.3266 5.61903 23.4595 5.56169C23.4873 5.56244 23.5151 5.5632 23.5429 5.5632C23.7171 5.5632 23.883 5.5398 24.0332 5.49754C24.1098 5.5066 24.1879 5.5217 24.2675 5.54358C24.2675 5.55037 24.2675 5.55641 24.2675 5.5632C24.2675 5.95632 24.73 6.27925 25.3278 6.32528C25.4426 6.53806 25.4682 6.75764 25.3781 6.93873C25.3721 6.9508 25.3653 6.96287 25.3585 6.97495C25.2286 6.94175 25.1025 6.92591 24.9831 6.92591C24.6782 6.92591 24.4244 7.03153 24.3043 7.23375Z" fill="#F6EBD9"/>
<path d="M23.5429 5.56319C23.5151 5.56319 23.4873 5.56243 23.4595 5.56168C23.5744 5.51187 23.7118 5.48697 23.8605 5.48697C23.9168 5.48697 23.9739 5.48998 24.0332 5.49753C23.883 5.53979 23.7171 5.56319 23.5429 5.56319Z" fill="#F9F0E2"/>
<path d="M0.527863 7.84039C0.43175 7.64044 0.414478 7.43748 0.498577 7.26696C0.572164 7.11907 0.711826 7.01796 0.890537 6.9659C0.753876 7.2579 0.633738 7.5499 0.527863 7.84039Z" fill="white"/>
<path d="M1.55579 8.6485C1.45592 8.61832 1.35531 8.57758 1.25544 8.52778C0.91078 8.35424 0.65323 8.09995 0.527832 7.84039C0.633707 7.54989 0.753846 7.2579 0.890507 6.96589C0.982866 6.93872 1.08649 6.92514 1.19612 6.92514C1.33579 6.92514 1.48596 6.94701 1.63914 6.99229C1.733 7.29259 2.01683 7.60422 2.41706 7.80568C2.52293 7.8585 2.62881 7.90075 2.73394 7.93169C2.73694 7.94149 2.73995 7.95056 2.74295 7.96037C2.46587 8.01017 2.16627 8.13994 1.88844 8.34668C1.76379 8.43949 1.65191 8.54135 1.55579 8.6485Z" fill="#F6EBD9"/>
<path d="M2.73404 7.93166C2.62891 7.90072 2.52303 7.85847 2.41715 7.80566C2.01692 7.6042 1.73308 7.29257 1.63922 6.99227C1.74435 7.0232 1.85098 7.0647 1.95611 7.11751C2.35709 7.31897 2.64093 7.6306 2.73404 7.93166Z" fill="#F9F0E2"/>
<path d="M2.01621 8.72095C1.87129 8.72095 1.7151 8.6968 1.55591 8.64851C1.65202 8.54137 1.76391 8.43951 1.88856 8.3467C2.1664 8.13995 2.46601 8.01018 2.74309 7.96038C2.78289 8.10827 2.77538 8.25239 2.71305 8.37765C2.60192 8.60325 2.33685 8.72095 2.01621 8.72095Z" fill="#F9F0E2"/>
<path d="M25.0205 7.79663C25.0017 7.75211 24.9777 7.71062 24.9492 7.67138C24.811 7.4835 24.5767 7.39145 24.3019 7.39145C24.2824 7.39145 24.2629 7.39221 24.2426 7.39296C24.2516 7.34995 24.2659 7.30771 24.2854 7.26772C24.2914 7.2564 24.2974 7.24507 24.3042 7.23375C24.4333 7.26619 24.5602 7.28205 24.6796 7.28205C24.9837 7.28205 25.2368 7.17716 25.3584 6.97495C25.4861 7.00664 25.616 7.05417 25.7444 7.1183C25.8548 7.17414 25.9561 7.23827 26.047 7.30845C26.0642 7.34316 26.0845 7.37863 26.1063 7.41334C26.0928 7.41334 26.0785 7.41334 26.065 7.41334C25.6182 7.41334 25.2285 7.56725 25.0205 7.79663Z" fill="#F6EBD9"/>
<path d="M26.175 7.41635C26.1524 7.41484 26.1298 7.41408 26.1065 7.41332C26.0846 7.37853 26.0643 7.34296 26.047 7.30817C26.0922 7.34296 26.1351 7.37853 26.175 7.41635Z" fill="#F9F0E2"/>
<path d="M24.6796 7.28203C24.5602 7.28203 24.4333 7.26617 24.3041 7.23373C24.4243 7.03152 24.6781 6.9259 24.9829 6.9259C25.1023 6.9259 25.2285 6.94173 25.3584 6.97493C25.2367 7.17714 24.9837 7.28203 24.6796 7.28203Z" fill="#F9F0E2"/>
<path d="M27.5301 6.38412C27.2944 6.38412 27.0285 6.32151 26.7702 6.19173C26.6584 6.1359 26.5562 6.07101 26.4646 6.00084C26.5998 5.87634 26.6794 5.72618 26.6794 5.56321C26.6794 5.26894 26.4196 5.01391 26.0389 4.88564C26.162 4.69022 26.4113 4.58911 26.7094 4.58911C26.9452 4.58911 27.211 4.65172 27.4708 4.7815C28.082 5.08784 28.4222 5.65149 28.2285 6.04158C28.1166 6.26719 27.8515 6.38412 27.5301 6.38412Z" fill="#F6EBD9"/>
<path d="M26.3676 4.59286C26.1318 4.59286 25.866 4.5295 25.6077 4.40047C25.1669 4.17789 24.8681 3.82324 24.8073 3.49653C24.8388 3.42786 24.8561 3.35468 24.8561 3.27998C24.8561 3.23849 24.8508 3.19773 24.841 3.15774C24.844 3.15171 24.8463 3.14567 24.85 3.13888C24.9619 2.91403 25.227 2.79709 25.5484 2.79709C25.5611 2.79709 25.5747 2.79709 25.5874 2.79709C25.628 2.82199 25.67 2.84462 25.7128 2.8665C25.8645 2.94271 26.0192 2.99552 26.1679 3.02645C25.8059 3.46635 25.6941 3.97491 25.9306 4.29709C26.0687 4.48271 26.3 4.574 26.5726 4.57551C26.5073 4.58683 26.4389 4.59286 26.3676 4.59286Z" fill="#F6EBD9"/>
<path d="M26.1678 3.02646C26.0192 2.99552 25.8645 2.94272 25.7128 2.86651C25.67 2.84463 25.628 2.822 25.5874 2.7971C25.7894 2.80314 26.0117 2.85443 26.2317 2.95252C26.2099 2.97666 26.1889 3.00156 26.1678 3.02646Z" fill="#F9F0E2"/>
<path d="M25.2661 2.80614C25.0303 2.80614 24.7645 2.74275 24.5055 2.61373C24.4011 2.56091 24.3042 2.50056 24.2164 2.43416C24.1375 2.23043 23.9738 2.02518 23.7478 1.85541C23.6795 1.67885 23.675 1.5023 23.7493 1.35214C23.8605 1.12805 24.1248 1.01034 24.4462 1.01034C24.6819 1.01034 24.9477 1.07372 25.2068 1.2035C25.2646 1.23217 25.3194 1.26311 25.372 1.29631C25.1813 1.34611 25.0326 1.44949 24.9553 1.60492C24.7803 1.95729 25.0416 2.45226 25.5462 2.77219C25.4606 2.79482 25.366 2.80614 25.2661 2.80614Z" fill="#F6EBD9"/>
<path d="M24.2164 2.43414C23.9911 2.26437 23.8267 2.05912 23.7478 1.8554C23.9738 2.02517 24.1375 2.23042 24.2164 2.43414Z" fill="#F9F0E2"/>
<path d="M25.5461 2.77219C25.0415 2.45226 24.7802 1.95729 24.9552 1.60492C25.0325 1.44948 25.1812 1.3461 25.3719 1.2963C25.878 1.61472 26.1393 2.11045 25.9644 2.46357C25.887 2.61825 25.7376 2.72239 25.5461 2.77219Z" fill="#F9F0E2"/>
<path d="M6.88345 1.16653C6.86919 1.05411 6.88422 0.945459 6.93227 0.848125C7.04416 0.622521 7.30923 0.505565 7.63061 0.505565C7.83861 0.505565 8.07138 0.554609 8.30116 0.655716C7.80782 0.799831 7.33474 0.971866 6.88345 1.16653Z" fill="white"/>
<path d="M8.41969 2.30061C8.19217 2.29609 7.93762 2.2327 7.68982 2.10896C7.23178 1.87807 6.92691 1.50382 6.88336 1.16654C7.33465 0.971872 7.80772 0.799836 8.30106 0.655719C8.33109 0.668546 8.36113 0.682887 8.39116 0.697978C8.5083 0.756831 8.61643 0.82549 8.71179 0.900944C8.28604 0.924334 7.95039 1.11297 7.8738 1.41177C7.79496 1.72641 8.02397 2.0735 8.41969 2.30061Z" fill="#F6EBD9"/>
<path d="M8.44909 2.30138C8.43933 2.30138 8.42955 2.30062 8.41979 2.30062C8.02407 2.0735 7.79507 1.72641 7.87391 1.41177C7.9505 1.11297 8.28614 0.924338 8.7119 0.900948C9.11287 1.21559 9.3036 1.64341 9.14742 1.95806C9.03553 2.18366 8.77122 2.30138 8.44909 2.30138Z" fill="#F9F0E2"/>
<path d="M4.06757 10.8261C4.10361 10.6141 4.07056 10.4164 3.95643 10.2617C3.81827 10.0746 3.58399 9.98252 3.30916 9.98252C3.26937 9.98252 3.22807 9.98477 3.18677 9.98854C3.19202 9.95761 3.19878 9.92667 3.20704 9.89574C3.37299 9.95082 3.56146 9.98176 3.76195 9.98176C4.30635 9.98176 4.76589 9.75313 4.91682 9.43849C5.04597 9.50111 5.17588 9.54714 5.30353 9.57657C4.89955 9.70107 4.62022 9.96364 4.62022 10.2685C4.62022 10.3922 4.66602 10.5092 4.74787 10.6125C4.5181 10.734 4.28307 10.8065 4.06757 10.8261Z" fill="#F6EBD9"/>
<path d="M4.74795 10.6126C4.6661 10.5092 4.6203 10.3922 4.6203 10.2685C4.6203 9.96366 4.89964 9.70109 5.30362 9.57659C5.42377 9.60451 5.54091 9.61885 5.6513 9.61885C5.67007 9.61885 5.68884 9.61809 5.70686 9.61734C5.58672 9.90104 5.35844 10.19 5.04531 10.4239C4.94844 10.4964 4.84857 10.559 4.74795 10.6126Z" fill="#F9F0E2"/>
<path d="M3.762 9.98177C3.56151 9.98177 3.37304 9.95082 3.20709 9.89574C3.23713 9.77803 3.28819 9.65731 3.35727 9.53734C3.44362 9.4385 3.51721 9.33588 3.57729 9.23251C3.6779 9.11782 3.79579 9.00843 3.92945 8.90883C4.00829 8.84998 4.0894 8.79791 4.17124 8.75113C4.29814 9.00616 4.55344 9.25515 4.8921 9.42643C4.90036 9.43095 4.90861 9.43472 4.91687 9.43849C4.76594 9.75313 4.3064 9.98177 3.762 9.98177Z" fill="#F9F0E2"/>
<path d="M3.94523 10.8321C3.6704 10.8321 3.43688 10.74 3.29796 10.5522C3.18458 10.3982 3.15078 10.2006 3.18682 9.98853C3.22812 9.98476 3.26942 9.98251 3.30922 9.98251C3.58404 9.98251 3.81832 10.0746 3.95648 10.2617C4.07062 10.4164 4.10367 10.614 4.06762 10.8261C4.02632 10.8298 3.98578 10.8321 3.94523 10.8321Z" fill="#F9F0E2"/>
<path d="M3.3573 9.53734C3.41753 9.43371 3.49131 9.33083 3.57788 9.23174C3.51766 9.33537 3.44387 9.43825 3.3573 9.53734Z" fill="#FBF4E9"/>
<path d="M5.30367 9.57657C5.17602 9.54714 5.04611 9.50111 4.91696 9.43848C4.95075 9.36756 4.96878 9.29286 4.96878 9.21514C4.96878 8.96539 4.78181 8.74356 4.49121 8.60322C4.67818 8.53531 4.86215 8.5006 5.0311 8.5006C5.30517 8.5006 5.5387 8.59265 5.67686 8.77977C5.81953 8.97218 5.8368 9.23099 5.7497 9.50263C5.59051 9.50866 5.44033 9.53507 5.30367 9.57657Z" fill="#F9F0E2"/>
<path d="M5.65128 9.61884C5.54089 9.61884 5.42374 9.60449 5.30359 9.57658C5.44026 9.53508 5.59045 9.50867 5.74965 9.50263C5.73763 9.54036 5.72337 9.57884 5.70685 9.61732C5.68882 9.61808 5.67005 9.61884 5.65128 9.61884Z" fill="#FBF4E9"/>
<path d="M4.91688 9.43848C4.90862 9.4347 4.90037 9.43094 4.89211 9.42641C4.55346 9.25513 4.29816 9.00614 4.17126 8.75111C4.27714 8.6915 4.38452 8.6417 4.49114 8.60322C4.78173 8.74356 4.9687 8.96539 4.9687 9.21514C4.9687 9.29285 4.95067 9.36755 4.91688 9.43848Z" fill="#FBF4E9"/>
<path d="M8.85832 13.848C8.5835 13.848 8.34998 13.7559 8.21106 13.5688C8.06088 13.3651 8.05112 13.0867 8.1555 12.7984C8.31994 12.6694 8.42055 12.5057 8.42581 12.3268C8.53919 12.1835 8.67886 12.0469 8.8418 11.9254C8.97922 11.8236 9.12263 11.7398 9.2653 11.6757C9.40497 11.8432 9.59795 11.9979 9.83073 12.1148C10.0275 12.2129 10.228 12.2733 10.4164 12.2967C10.1131 12.6513 9.97266 13.0542 10.0485 13.3704C10.02 13.3938 9.98991 13.4171 9.95988 13.4398C9.5972 13.7091 9.19622 13.848 8.85832 13.848Z" fill="#F6EBD9"/>
<path d="M8.15552 12.7984C8.21259 12.6407 8.30418 12.48 8.42583 12.3269C8.42057 12.5057 8.31996 12.6694 8.15552 12.7984Z" fill="#F9F0E2"/>
<path d="M10.0485 13.3704C9.97267 13.0542 10.1131 12.6513 10.4164 12.2967C10.4757 12.3042 10.5343 12.308 10.5914 12.308C10.6319 12.308 10.671 12.3057 10.7093 12.302C10.6702 12.6536 10.433 13.0535 10.0485 13.3704Z" fill="#F9F0E2"/>
<path d="M10.4164 12.2967C10.2279 12.2733 10.0274 12.2129 9.83069 12.1148C9.59791 11.9979 9.40493 11.8432 9.26526 11.6757C9.49954 11.57 9.73382 11.5165 9.94332 11.5165C10.2181 11.5165 10.4509 11.6085 10.5891 11.7956C10.6402 11.8643 10.6747 11.9413 10.695 12.0243C10.5906 12.1095 10.4975 12.2016 10.4164 12.2967Z" fill="#F9F0E2"/>
<path d="M10.5919 12.308C10.5346 12.308 10.4759 12.3042 10.4164 12.2966C10.4977 12.2013 10.5911 12.109 10.6957 12.0236C10.7168 12.1106 10.7213 12.2044 10.7101 12.3019C10.6717 12.3057 10.6325 12.308 10.5919 12.308Z" fill="#FBF4E9"/>
<path d="M22.4773 8.79338C22.5636 8.45233 22.8189 8.08486 23.2004 7.80041C23.542 7.54613 23.9175 7.40806 24.2426 7.39297C24.1698 7.74986 24.4604 8.20031 24.956 8.4825C24.9627 8.49231 24.9695 8.50289 24.977 8.5127C24.962 8.54816 24.9447 8.58437 24.9267 8.61983C24.8253 8.53759 24.7097 8.46214 24.5828 8.39801C24.3237 8.26823 24.0572 8.2056 23.8214 8.2056C23.5 8.2056 23.2357 8.32255 23.1246 8.5474C23.0998 8.5972 23.084 8.64925 23.0758 8.70433C23.0472 8.70207 23.0179 8.70057 22.9879 8.70057C22.8279 8.70057 22.6545 8.73151 22.4773 8.79338Z" fill="#F6EBD9"/>
<path d="M23.7274 9.63089C23.7898 9.38642 23.7642 9.15555 23.6343 8.97974C23.5112 8.81299 23.3122 8.72168 23.0757 8.70433C23.0839 8.64925 23.0997 8.5972 23.1245 8.5474C23.2356 8.32255 23.4999 8.2056 23.8213 8.2056C24.0571 8.2056 24.3236 8.26823 24.5827 8.398C24.7096 8.46214 24.8252 8.53759 24.9266 8.61983C24.7982 8.86656 24.5902 9.11178 24.3184 9.31475C24.1277 9.45735 23.9257 9.56298 23.7274 9.63089Z" fill="#F9F0E2"/>
<path d="M24.956 8.48247C24.4604 8.20027 24.1698 7.74983 24.2426 7.39294C24.2629 7.39218 24.2824 7.39143 24.3019 7.39143C24.5768 7.39143 24.811 7.48347 24.9492 7.67135C24.9777 7.71059 25.0018 7.75208 25.0205 7.7966C24.9177 7.90902 24.8584 8.04031 24.8584 8.1799C24.8584 8.2878 24.8929 8.38966 24.956 8.48247Z" fill="#F9F0E2"/>
<path d="M22.3302 2.86046C22.3189 2.85442 22.3077 2.84839 22.2956 2.84235C22.0366 2.71332 21.7708 2.6507 21.5357 2.6507C21.4021 2.6507 21.2782 2.67107 21.1716 2.71031C21.1633 2.70125 21.1558 2.69145 21.1483 2.68164C21.1017 2.61826 21.0679 2.54733 21.0477 2.47112C21.0957 2.44094 21.143 2.40849 21.1903 2.37303C21.746 1.95804 22.0343 1.36648 21.9209 0.94017C22.2438 0.734936 22.5855 0.630048 22.8798 0.630048C23.1547 0.630048 23.3882 0.721361 23.5279 0.909241C23.6863 1.12579 23.6878 1.42534 23.5624 1.73319C23.5286 1.71357 23.4941 1.69471 23.458 1.6766C23.1997 1.54682 22.9339 1.48419 22.6981 1.48419C22.3767 1.48419 22.1124 1.60114 22.0005 1.82675C21.8519 2.12705 22.0186 2.52997 22.3828 2.84084C22.3655 2.84763 22.3474 2.85442 22.3302 2.86046Z" fill="#F6EBD9"/>
<path d="M21.0477 2.47115C20.9328 2.04559 21.2219 1.45328 21.779 1.03829C21.8256 1.00358 21.8729 0.971129 21.9209 0.940193C22.0343 1.36651 21.746 1.95806 21.1903 2.37305C21.143 2.40852 21.0957 2.44096 21.0477 2.47115Z" fill="#F9F0E2"/>
<path d="M22.3827 2.84085C22.0185 2.52998 21.8518 2.12706 22.0005 1.82676C22.1124 1.60115 22.3767 1.4842 22.6981 1.4842C22.9339 1.4842 23.1997 1.54683 23.458 1.67661C23.494 1.69472 23.5286 1.71358 23.5623 1.7332C23.4437 2.02143 23.2139 2.31569 22.8963 2.55337C22.7296 2.67711 22.5554 2.77294 22.3827 2.84085Z" fill="#F9F0E2"/>
<path d="M21.7954 2.96082C21.5348 2.96082 21.3118 2.87856 21.1714 2.71029C21.278 2.67106 21.4019 2.65068 21.5356 2.65068C21.7706 2.65068 22.0364 2.71331 22.2955 2.84234C22.3075 2.84838 22.3187 2.85442 22.33 2.86045C22.1445 2.92761 21.9621 2.96082 21.7954 2.96082Z" fill="#F9F0E2"/>
<path d="M24.769 11.4358C24.8253 11.3468 24.8561 11.2502 24.8561 11.1483C24.8561 10.7243 24.3177 10.3817 23.6517 10.3817C23.6171 10.3817 23.5834 10.3824 23.5496 10.384C23.6359 10.1968 23.7688 10.009 23.9415 9.83768C24.1818 9.94784 24.4251 10.0014 24.6429 10.0014C24.9635 10.0014 25.2278 9.88447 25.3397 9.65886C25.405 9.52606 25.4095 9.37364 25.3622 9.21745C25.6063 9.23254 25.812 9.32384 25.9389 9.49512C26.2468 9.91388 25.9644 10.648 25.3074 11.1385C25.1324 11.2683 24.9492 11.3679 24.769 11.4358Z" fill="#F6EBD9"/>
<path d="M24.6428 10.0014C24.425 10.0014 24.1818 9.9478 23.9415 9.83764C24.0173 9.76295 24.0999 9.69128 24.19 9.62413C24.5527 9.35476 24.9529 9.21592 25.2908 9.21592C25.3149 9.21592 25.3389 9.21592 25.3622 9.21743C25.4095 9.37362 25.405 9.52604 25.3396 9.65883C25.2277 9.88443 24.9634 10.0014 24.6428 10.0014Z" fill="#F9F0E2"/>
<path d="M26.578 4.57549C26.5757 4.57549 26.5742 4.57549 26.5727 4.57549C26.7995 4.53474 26.9797 4.42535 27.0661 4.24954C27.2455 3.88736 26.9647 3.37579 26.4346 3.05813C26.4473 3.05888 26.4601 3.05888 26.4729 3.05888C26.7942 3.05888 27.0593 2.94117 27.1704 2.71556C27.2298 2.59559 27.2395 2.45978 27.2057 2.31943C27.3642 2.26963 27.5196 2.24398 27.663 2.24398C27.9378 2.24398 28.1714 2.33603 28.3095 2.52315C28.6189 2.94192 28.3358 3.67759 27.6795 4.16653C27.3161 4.43666 26.9159 4.57549 26.578 4.57549Z" fill="#F6EBD9"/>
<path d="M26.4727 3.0589C26.46 3.0589 26.4472 3.0589 26.4344 3.05814C26.3939 3.034 26.3518 3.0106 26.3083 2.98871C26.2828 2.97664 26.2572 2.96382 26.2317 2.9525C26.3278 2.84686 26.4382 2.74576 26.5621 2.65295C26.7708 2.49827 26.9916 2.38585 27.2056 2.31945C27.2394 2.4598 27.2296 2.59561 27.1703 2.71558C27.0592 2.94119 26.7941 3.0589 26.4727 3.0589Z" fill="#F9F0E2"/>
<path d="M26.5726 4.57552C26.3 4.57401 26.0688 4.48271 25.9306 4.2971C25.6941 3.97491 25.806 3.46635 26.1679 3.02646C26.2595 3.04532 26.3489 3.0559 26.4345 3.05816C26.9646 3.37582 27.2454 3.88739 27.066 4.24957C26.9796 4.42538 26.7994 4.53477 26.5726 4.57552Z" fill="#F9F0E2"/>
<path d="M26.4351 3.05815C26.3493 3.05588 26.2597 3.04528 26.1678 3.02637C26.1889 3.0014 26.21 2.97644 26.2318 2.95223C26.2574 2.96358 26.283 2.97644 26.3086 2.98854C26.3523 3.01048 26.3945 3.03394 26.4351 3.05815Z" fill="#FBF4E9"/>
<path d="M22.8355 10.5839C22.6981 10.4277 22.5141 10.2851 22.2956 10.1749C22.0365 10.0451 21.77 9.98177 21.5342 9.98177C21.4058 9.98177 21.2856 10.0006 21.1813 10.0384C21.2819 9.71618 21.5289 9.37663 21.8871 9.10953C22.0786 8.96692 22.2798 8.86129 22.4773 8.79338C22.4157 9.03785 22.4413 9.26873 22.5712 9.44454C22.7086 9.63166 22.9421 9.72371 23.2169 9.72371C23.3483 9.72371 23.4902 9.70259 23.6352 9.66034C23.6577 9.67694 23.6817 9.69278 23.7057 9.70862C23.6269 9.95158 23.4647 10.2051 23.2342 10.4285C23.0855 10.4632 22.9504 10.5167 22.8355 10.5839Z" fill="#F6EBD9"/>
<path d="M21.9036 11.0321C21.6288 11.0321 21.3953 10.9408 21.2563 10.7529C21.1159 10.562 21.0979 10.3062 21.1812 10.0384C21.2856 10.0006 21.4058 9.98177 21.5342 9.98177C21.7699 9.98177 22.0365 10.0451 22.2956 10.1749C22.5141 10.2851 22.6981 10.4277 22.8355 10.5839C22.6868 10.6706 22.5719 10.7808 22.5066 10.9053C22.2978 10.9898 22.0913 11.0321 21.9036 11.0321Z" fill="#F9F0E2"/>
<path d="M23.7059 9.7086C23.6819 9.69272 23.6578 9.67684 23.6352 9.66019C23.6661 9.65187 23.6969 9.64203 23.7278 9.63068C23.7217 9.6564 23.7142 9.68212 23.7059 9.7086Z" fill="#F9F0E2"/>
<path d="M23.2168 9.72369C22.942 9.72369 22.7084 9.63165 22.571 9.44452C22.4411 9.26872 22.4156 9.03784 22.4772 8.79337C22.6544 8.7315 22.8278 8.70057 22.9878 8.70057C23.0178 8.70057 23.0471 8.70206 23.0756 8.70433C23.0306 9.01519 23.2506 9.38945 23.635 9.66033C23.4901 9.70258 23.3482 9.72369 23.2168 9.72369Z" fill="#F9F0E2"/>
<path d="M23.635 9.66031C23.2506 9.38943 23.0306 9.01517 23.0756 8.7043C23.3122 8.72165 23.5111 8.81296 23.6343 8.97972C23.7642 9.15552 23.7897 9.3864 23.7274 9.63087C23.6966 9.64219 23.6658 9.65201 23.635 9.66031Z" fill="#FBF4E9"/>
<path d="M18.4081 12.5751C18.3142 12.5751 18.2256 12.5645 18.143 12.5427C18.1791 12.4702 18.1978 12.3933 18.1978 12.3133C18.1978 12.2295 18.1768 12.1496 18.1378 12.0741C18.2136 12.1277 18.2962 12.1775 18.3833 12.2212C18.6244 12.342 18.8714 12.4053 19.0937 12.4129C18.8571 12.5208 18.6206 12.5751 18.4081 12.5751ZM19.8949 11.8032C19.8783 11.4539 19.566 11.0532 19.0846 10.811C18.8646 10.7001 18.6394 10.6382 18.4321 10.6224C18.7835 10.3726 19.1673 10.2436 19.4924 10.2436C19.768 10.2436 20.0015 10.3356 20.1404 10.5235C20.3799 10.8472 20.2635 11.3611 19.8949 11.8032ZM17.7788 11.7323C17.7413 11.7119 17.7022 11.6923 17.6609 11.6749C17.6677 11.6463 17.6752 11.6169 17.6842 11.5874C17.7113 11.6365 17.7428 11.6848 17.7788 11.7323Z" fill="#F6EBD9"/>
<path d="M19.0938 12.4129C18.8715 12.4053 18.6245 12.3419 18.3835 12.2212C18.2964 12.1774 18.2138 12.1276 18.1379 12.0741C18.0688 11.9398 17.9434 11.8221 17.779 11.7323C17.743 11.6847 17.7114 11.6364 17.6844 11.5874C17.7835 11.2637 18.0313 10.9211 18.3925 10.6518C18.4052 10.642 18.4188 10.6322 18.4323 10.6223C18.6395 10.6382 18.8648 10.7001 19.0848 10.811C19.5661 11.0532 19.8785 11.4538 19.895 11.8032C19.865 11.8394 19.8334 11.8749 19.7996 11.9103C19.5038 11.9232 19.2627 12.0394 19.1584 12.2506C19.1336 12.2997 19.1178 12.3517 19.1096 12.4061C19.1043 12.4083 19.0991 12.4106 19.0938 12.4129Z" fill="#F9F0E2"/>
<path d="M19.1094 12.4061C19.1177 12.3517 19.1335 12.2997 19.1582 12.2506C19.2626 12.0394 19.5036 11.9232 19.7995 11.9103C19.7139 12.0001 19.617 12.0869 19.5097 12.1661C19.3798 12.2635 19.2446 12.3434 19.1094 12.4061Z" fill="#FBF4E9"/>
<path d="M25.4732 6.33058C25.4244 6.33058 25.3756 6.32831 25.3276 6.32529C25.1961 6.08007 24.9468 5.84316 24.6217 5.67943C24.5038 5.62057 24.3844 5.5753 24.2673 5.54361C24.2695 5.49984 24.277 5.45684 24.2898 5.41534C24.8665 5.40855 25.3441 5.14446 25.4507 4.79587C25.4582 4.79587 25.4657 4.79587 25.4732 4.79587C25.6775 4.79587 25.8697 4.82831 26.0387 4.88565C26.0296 4.89999 26.0214 4.91507 26.0131 4.93091C25.8554 5.24933 26.0522 5.68395 26.4644 6.00086C26.2466 6.20006 25.8832 6.33058 25.4732 6.33058Z" fill="#F6EBD9"/>
<path d="M25.3276 6.32526C24.7298 6.27923 24.2673 5.9563 24.2673 5.56319C24.2673 5.5564 24.2673 5.55036 24.2673 5.54357C24.3844 5.57526 24.5038 5.62054 24.6217 5.67939C24.9468 5.84313 25.1962 6.08003 25.3276 6.32526Z" fill="#F9F0E2"/>
<path d="M26.4644 6.00085C26.0522 5.68395 25.8554 5.24933 26.0131 4.93092C26.0214 4.91507 26.0296 4.89999 26.0387 4.88566C26.4194 5.01393 26.6792 5.26896 26.6792 5.56322C26.6792 5.7262 26.5996 5.87636 26.4644 6.00085Z" fill="#F9F0E2"/>
<path d="M26.0652 8.94728C25.5861 8.94728 25.1716 8.76998 24.9771 8.51268C24.9794 8.5074 24.9816 8.50285 24.9831 8.49757C25.0026 8.50889 25.0229 8.51871 25.0432 8.52928C25.3015 8.6583 25.5666 8.72167 25.8024 8.72167C26.1245 8.72167 26.3895 8.60398 26.5022 8.37912C26.587 8.20708 26.5675 8.00108 26.4676 7.7981C26.5585 7.86828 26.6606 7.93241 26.771 7.98825C26.9377 8.07201 27.1066 8.12709 27.2696 8.15651C27.2696 8.16406 27.2696 8.17236 27.2696 8.17991C27.2696 8.60472 26.7297 8.94728 26.0652 8.94728Z" fill="#F6EBD9"/>
<path d="M27.2695 8.15651C27.1066 8.12708 26.9376 8.072 26.771 7.98825C26.6606 7.93241 26.5584 7.86828 26.4676 7.79811C26.4023 7.66606 26.3024 7.53554 26.1747 7.41633C26.7762 7.45104 27.2508 7.76717 27.2695 8.15651Z" fill="#F9F0E2"/>
<path d="M25.8022 8.72166C25.5664 8.72166 25.3014 8.6583 25.043 8.52927C25.0228 8.51871 25.0025 8.50889 24.983 8.49757C25.0873 8.2448 25.1054 7.99655 25.0205 7.7966C25.2285 7.56722 25.6182 7.41331 26.065 7.41331C26.0785 7.41331 26.0928 7.41331 26.1063 7.41331C26.1934 7.54988 26.3158 7.68191 26.4675 7.79811C26.5674 8.00108 26.5869 8.20709 26.502 8.37912C26.3894 8.60397 26.1243 8.72166 25.8022 8.72166Z" fill="#F9F0E2"/>
<path d="M26.4675 7.79811C26.3158 7.68191 26.1934 7.54988 26.1063 7.41331C26.1295 7.41407 26.1521 7.41482 26.1746 7.41633C26.3023 7.53555 26.4021 7.66607 26.4675 7.79811Z" fill="#FBF4E9"/>
<path d="M24.977 8.51266C24.9695 8.50283 24.9627 8.49223 24.9559 8.48239C24.965 8.48769 24.974 8.49298 24.983 8.49752C24.9815 8.50282 24.9792 8.50737 24.977 8.51266Z" fill="#F9F0E2"/>
<path d="M24.983 8.49756C24.974 8.49303 24.965 8.48775 24.956 8.48247C24.8929 8.38966 24.8584 8.2878 24.8584 8.1799C24.8584 8.04031 24.9177 7.90901 25.0206 7.79659C25.1054 7.99654 25.0874 8.24479 24.983 8.49756Z" fill="#FBF4E9"/>
<path d="M22.8812 13.2979C23.0081 13.2383 23.1328 13.1757 23.2559 13.1101C23.153 13.1878 23.0254 13.2519 22.8812 13.2979Z" fill="#6B655B"/>
<path d="M22.3368 13.3802C21.9741 13.3802 21.649 13.2791 21.4275 13.1176C21.4252 12.9161 21.3231 12.6951 21.1444 12.4974C21.233 12.1284 21.7338 11.847 22.3368 11.847C23.0029 11.847 23.5427 12.1895 23.5427 12.6136C23.5427 12.803 23.4354 12.9765 23.2559 13.1101C23.1328 13.1757 23.0081 13.2383 22.8812 13.2979C22.7183 13.3508 22.5328 13.3802 22.3368 13.3802Z" fill="#F6EBD9"/>
<path d="M21.4276 13.1176C21.2429 12.9825 21.131 12.8067 21.131 12.6136C21.131 12.5736 21.1355 12.5351 21.1445 12.4974C21.3232 12.6951 21.4253 12.9161 21.4276 13.1176Z" fill="#F9F0E2"/>
<path d="M12.2216 11.601C12.1299 11.5686 12.0278 11.5504 11.9189 11.5474C11.9189 11.5467 11.9189 11.5467 11.9189 11.5467C11.9189 11.1219 12.4588 10.7793 13.1249 10.7793C13.6685 10.7793 14.1288 11.0079 14.279 11.3233C14.2767 11.3656 14.2782 11.4086 14.2842 11.4524C14.0642 11.2675 13.7151 11.1483 13.3223 11.1483C12.832 11.1483 12.41 11.3339 12.2216 11.601Z" fill="#F6EBD9"/>
<path d="M13.1248 12.3133C12.9589 12.3133 12.8004 12.2921 12.6563 12.2537C12.6608 12.0937 12.621 11.9466 12.5316 11.8258C12.455 11.7217 12.3484 11.647 12.2215 11.601C12.41 11.3339 12.832 11.1483 13.3223 11.1483C13.715 11.1483 14.0642 11.2675 14.2842 11.4524C14.2917 11.5059 14.306 11.561 14.3263 11.6153C14.2714 12.0084 13.7533 12.3133 13.1248 12.3133Z" fill="#F9F0E2"/>
<path d="M12.1194 11.9715C11.9925 11.85 11.9189 11.7044 11.9189 11.5474C12.0278 11.5504 12.1299 11.5685 12.2215 11.601C12.154 11.6968 12.1164 11.8032 12.1164 11.9156C12.1164 11.9337 12.1172 11.9526 12.1194 11.9715Z" fill="#F9F0E2"/>
<path d="M12.6563 12.2537C12.437 12.1948 12.25 12.096 12.1194 11.9715C12.1171 11.9526 12.1164 11.9337 12.1164 11.9156C12.1164 11.8032 12.1539 11.6968 12.2215 11.601C12.3484 11.647 12.455 11.7217 12.5316 11.8259C12.621 11.9466 12.6608 12.0937 12.6563 12.2537Z" fill="#FBF4E9"/>
<path d="M14.328 11.4916C14.3144 11.478 14.2993 11.4651 14.2843 11.4523C14.2783 11.4084 14.2768 11.3653 14.279 11.3229C14.3046 11.3774 14.3219 11.4333 14.328 11.4916Z" fill="#F9F0E2"/>
<path d="M14.3264 11.6153C14.3061 11.5608 14.2918 11.5056 14.2843 11.4519C14.2993 11.4648 14.3144 11.4776 14.3279 11.4912C14.3302 11.5094 14.331 11.5275 14.331 11.5465C14.331 11.5692 14.3294 11.5926 14.3264 11.6153Z" fill="#FBF4E9"/>
<path d="M12.769 13.848C12.3733 13.848 12.0219 13.7273 11.8019 13.5394C11.8349 13.5175 11.868 13.4941 11.901 13.47C12.2614 13.2006 12.51 12.8573 12.6091 12.5336C12.8088 12.6271 13.0551 12.6822 13.3224 12.6822C13.4726 12.6822 13.6153 12.6649 13.7482 12.6332C13.7497 12.6347 13.7519 12.6362 13.7542 12.6377C13.7084 12.8377 13.7775 13.0663 13.9337 13.2798C13.7963 13.6073 13.3262 13.848 12.769 13.848Z" fill="#F6EBD9"/>
<path d="M13.3224 12.6823C13.0551 12.6823 12.8088 12.6272 12.6091 12.5336C12.6316 12.4597 12.6459 12.3872 12.6526 12.3171C12.6909 12.3148 12.73 12.3133 12.769 12.3133C13.1715 12.3133 13.5289 12.4393 13.7482 12.6332C13.6153 12.6649 13.4726 12.6823 13.3224 12.6823Z" fill="#F9F0E2"/>
<path d="M11.8019 13.5394C11.6517 13.4119 11.5624 13.2526 11.5624 13.0806C11.5624 12.7524 11.8868 12.4725 12.3426 12.363C12.4169 12.4279 12.507 12.486 12.6091 12.5336C12.51 12.8573 12.2615 13.2006 11.901 13.47C11.868 13.4941 11.8349 13.5175 11.8019 13.5394Z" fill="#F9F0E2"/>
<path d="M12.6097 12.5336C12.5074 12.4859 12.4171 12.4277 12.3425 12.3626C12.4411 12.3392 12.545 12.3233 12.6534 12.3165C12.6466 12.3868 12.6323 12.4594 12.6097 12.5336Z" fill="#FBF4E9"/>
<path d="M13.9335 13.2798C13.7773 13.0663 13.7082 12.8377 13.754 12.6377C13.893 12.763 13.9748 12.9161 13.9748 13.0806C13.9748 13.1493 13.9606 13.2164 13.9335 13.2798Z" fill="#F9F0E2"/>
<path d="M19.8596 14.1468C19.6351 14.1468 19.4241 14.1076 19.2438 14.0397C19.373 14.0397 19.5014 14.0404 19.6283 14.0412C19.6411 14.0412 19.6546 14.0412 19.6673 14.0412C19.9887 14.0412 20.3056 14.0193 20.6172 13.977C20.41 14.0834 20.1464 14.1468 19.8596 14.1468Z" fill="#6B655B"/>
<path d="M19.6675 14.0412C19.6547 14.0412 19.6412 14.0412 19.6284 14.0412C19.5015 14.0404 19.3731 14.0397 19.244 14.0397C18.8918 13.9061 18.6553 13.6609 18.6553 13.3802C18.6553 13.1229 18.8535 12.8958 19.1576 12.7562C19.268 13.0384 19.5406 13.3236 19.9153 13.5122C20.1743 13.6412 20.4394 13.7039 20.6752 13.7039C20.7856 13.7039 20.8892 13.6903 20.9823 13.6631C20.9049 13.7869 20.7781 13.8948 20.6174 13.977C20.3057 14.0193 19.9889 14.0412 19.6675 14.0412Z" fill="#F6EBD9"/>
<path d="M20.6752 13.7039C20.4394 13.7039 20.1743 13.6413 19.9153 13.5122C19.5406 13.3236 19.268 13.0384 19.1576 12.7562C19.3558 12.6664 19.5976 12.6136 19.8597 12.6136C20.5257 12.6136 21.0664 12.9554 21.0664 13.3802C21.0664 13.4805 21.0363 13.5756 20.9823 13.6631C20.8892 13.6903 20.7856 13.7039 20.6752 13.7039Z" fill="#F9F0E2"/>
<path d="M23.6516 11.9156C23.3152 11.9156 23.0111 11.8281 22.7918 11.6862C22.9074 11.6289 22.9983 11.5444 23.0524 11.435C23.162 11.2154 23.1012 10.9393 22.9172 10.6857C22.9465 10.6661 22.9758 10.6458 23.0043 10.6246C23.0869 10.5628 23.1642 10.4971 23.2341 10.4284C23.3339 10.4051 23.4398 10.39 23.5495 10.3839C23.3985 10.7121 23.3895 11.0373 23.56 11.2675C23.6974 11.4553 23.9309 11.5467 24.2058 11.5467C24.3815 11.5467 24.5737 11.5097 24.7689 11.4357C24.5902 11.7172 24.1577 11.9156 23.6516 11.9156Z" fill="#F6EBD9"/>
<path d="M22.792 11.6863C22.578 11.5482 22.4451 11.358 22.4451 11.1483C22.4451 11.063 22.4668 10.9815 22.5066 10.9053C22.6441 10.8502 22.783 10.777 22.9174 10.6857C23.1013 10.9393 23.1622 11.2154 23.0525 11.435C22.9985 11.5444 22.9076 11.6289 22.792 11.6863Z" fill="#F9F0E2"/>
<path d="M24.2057 11.5467C23.9309 11.5467 23.6973 11.4553 23.5599 11.2675C23.3895 11.0373 23.3985 10.7121 23.5494 10.3839C23.5832 10.3824 23.617 10.3817 23.6515 10.3817C24.3176 10.3817 24.856 10.7242 24.856 11.1483C24.856 11.2501 24.8252 11.3467 24.7689 11.4357C24.5736 11.5097 24.3814 11.5467 24.2057 11.5467Z" fill="#F9F0E2"/>
<path d="M22.9174 10.6857C22.8926 10.651 22.8649 10.6171 22.8356 10.5839C22.9505 10.5167 23.0856 10.4632 23.2343 10.4285C23.1645 10.4971 23.0871 10.5628 23.0045 10.6246C22.976 10.6458 22.9467 10.6661 22.9174 10.6857Z" fill="#F9F0E2"/>
<path d="M22.5066 10.9053C22.5719 10.7808 22.6868 10.6706 22.8355 10.5839C22.8648 10.6171 22.8925 10.651 22.9173 10.6857C22.7829 10.777 22.644 10.8502 22.5066 10.9053Z" fill="#FBF4E9"/>
<path d="M14.3309 2.70654C14.1297 2.70654 13.9397 2.67561 13.773 2.61978C14.0756 2.61072 14.3227 2.49377 14.4301 2.27646C14.4811 2.17535 14.4946 2.06143 14.4774 1.94372C14.5104 1.87355 14.5284 1.79959 14.5284 1.72263C14.5284 1.65245 14.5134 1.5838 14.4856 1.51966C14.6681 1.46458 14.8265 1.38234 14.9452 1.27972C15.0518 1.31971 15.1479 1.37027 15.2305 1.42912C15.1705 1.47741 15.1224 1.53627 15.0878 1.60493C14.97 1.84337 15.051 2.14745 15.2726 2.41832C15.051 2.59413 14.7117 2.70654 14.3309 2.70654Z" fill="#F6EBD9"/>
<path d="M14.4856 1.51962C14.4285 1.38834 14.3197 1.27139 14.1725 1.17859C14.2243 1.17481 14.2776 1.17256 14.3309 1.17256C14.5554 1.17256 14.7657 1.21104 14.9451 1.2797C14.8265 1.38231 14.6681 1.46454 14.4856 1.51962Z" fill="#F9F0E2"/>
<path d="M14.4773 1.94371C14.4586 1.81771 14.403 1.68642 14.3174 1.55966C14.3752 1.5491 14.4315 1.53552 14.4856 1.51967C14.5134 1.5838 14.5284 1.65246 14.5284 1.72263C14.5284 1.79959 14.5104 1.87354 14.4773 1.94371Z" fill="#F9F0E2"/>
<path d="M14.3172 1.55963C14.2316 1.43438 14.1167 1.31291 13.9763 1.20576C14.0394 1.19369 14.1055 1.18463 14.1723 1.17859C14.3195 1.2714 14.4283 1.38835 14.4854 1.51964C14.4313 1.53548 14.375 1.54907 14.3172 1.55963Z" fill="#FBF4E9"/>
<path d="M13.7729 2.61977C13.6648 2.58355 13.5656 2.53752 13.48 2.48319C13.9546 2.44395 14.3428 2.22892 14.4772 1.9437C14.4945 2.06141 14.481 2.17534 14.4299 2.27645C14.3225 2.49375 14.0755 2.61071 13.7729 2.61977Z" fill="#F9F0E2"/>
<path d="M13.4801 2.48322C13.2608 2.34438 13.1249 2.15198 13.1249 1.9392C13.1249 1.76942 13.212 1.61172 13.36 1.48421C13.5402 1.55212 13.7497 1.59135 13.975 1.59135C14.0936 1.59135 14.2085 1.58003 14.3173 1.55966C14.4029 1.68642 14.4585 1.81772 14.4773 1.94373C14.3429 2.22894 13.9547 2.44398 13.4801 2.48322Z" fill="#FBF4E9"/>
<path d="M13.9749 1.59132C13.7496 1.59132 13.5401 1.55209 13.3599 1.48418C13.5115 1.35365 13.7263 1.25481 13.9764 1.20576C14.1168 1.31291 14.2317 1.43438 14.3173 1.55964C14.2084 1.58001 14.0935 1.59132 13.9749 1.59132Z" fill="#FCF7EE"/>
<path d="M15.2724 2.4183C15.0508 2.14743 14.9698 1.84335 15.0876 1.60492C15.1222 1.53626 15.1703 1.4774 15.2303 1.42911C15.4203 1.56492 15.5359 1.74375 15.5359 1.93917C15.5359 2.12101 15.4376 2.28702 15.2724 2.4183Z" fill="#F9F0E2"/>
<path d="M16.9926 13.0806C16.473 13.0806 16.03 12.8724 15.8603 12.5789C16.1764 12.5758 16.4362 12.4589 16.5474 12.2355C16.6382 12.053 16.6104 11.8304 16.4925 11.6153C16.645 11.5708 16.8147 11.5467 16.9926 11.5467C17.2397 11.5467 17.4695 11.5934 17.6609 11.6749C17.6084 11.9088 17.6377 12.1277 17.7616 12.2959C17.8532 12.4197 17.9853 12.5012 18.143 12.5427C17.9898 12.855 17.5325 13.0806 16.9926 13.0806Z" fill="#F6EBD9"/>
<path d="M15.8604 12.5789C15.8123 12.4959 15.7868 12.4068 15.7868 12.3133C15.7868 12.0031 16.0759 11.736 16.4926 11.6153C16.6105 11.8304 16.6383 12.0529 16.5475 12.2355C16.4363 12.4589 16.1765 12.5758 15.8604 12.5789Z" fill="#F9F0E2"/>
<path d="M18.143 12.5426C17.9854 12.5011 17.8532 12.4197 17.7616 12.2959C17.6377 12.1276 17.6084 11.9088 17.661 11.6749C17.7023 11.6923 17.7413 11.7119 17.7788 11.7323C17.872 11.8545 17.9936 11.9715 18.1378 12.0741C18.1768 12.1495 18.1978 12.2295 18.1978 12.3133C18.1978 12.3932 18.1791 12.4702 18.143 12.5426Z" fill="#F9F0E2"/>
<path d="M18.1378 12.0741C17.9936 11.9715 17.8719 11.8545 17.7788 11.7323C17.9433 11.8221 18.0687 11.9398 18.1378 12.0741Z" fill="#FBF4E9"/>
<path d="M23.4234 4.03299C23.3085 4.01941 23.1996 3.99451 23.099 3.96131C23.1538 3.64592 22.93 3.2626 22.5366 2.98644C22.5411 2.97965 22.5448 2.97363 22.5501 2.96684C22.6147 3.0106 22.6837 3.05134 22.7566 3.08831C23.0156 3.21733 23.2807 3.27996 23.5165 3.27996C23.8379 3.27996 24.1029 3.16225 24.2156 2.93665C24.2636 2.83931 24.2786 2.73142 24.2644 2.61899C24.5662 2.73293 24.7832 2.92834 24.8411 3.15772C24.7945 3.26185 24.7855 3.37729 24.8073 3.49651C24.7352 3.6527 24.588 3.78777 24.392 3.8851C24.3507 3.88284 24.3094 3.88133 24.2674 3.88133C24.0008 3.88133 23.7545 3.93641 23.5555 4.02921C23.551 4.02921 23.5473 4.02921 23.5428 4.02921C23.503 4.02921 23.4624 4.03073 23.4234 4.03299Z" fill="#F6EBD9"/>
<path d="M23.5274 4.04282C23.4927 4.04055 23.4573 4.03753 23.4235 4.03299C23.4626 4.03072 23.5033 4.02921 23.5432 4.02921C23.5477 4.02921 23.5514 4.02921 23.556 4.02921C23.5462 4.03374 23.5371 4.03828 23.5274 4.04282Z" fill="#F9F0E2"/>
<path d="M23.5166 3.27998C23.2808 3.27998 23.0157 3.21735 22.7567 3.08833C22.6838 3.05136 22.6147 3.01062 22.5502 2.96686C22.7379 2.699 23.1614 2.51263 23.6517 2.51263C23.8755 2.51263 24.085 2.55111 24.2645 2.61902C24.2787 2.73144 24.2637 2.83933 24.2157 2.93667C24.103 3.16227 23.838 3.27998 23.5166 3.27998Z" fill="#F9F0E2"/>
<path d="M23.0991 3.96135C22.7109 3.83459 22.4451 3.57654 22.4451 3.28001C22.4451 3.17588 22.4774 3.07703 22.5367 2.98648C22.9301 3.26264 23.1539 3.64596 23.0991 3.96135Z" fill="#F9F0E2"/>
<path d="M24.8073 3.49652C24.7854 3.377 24.7945 3.26127 24.8411 3.15688C24.8509 3.19697 24.8562 3.23783 24.8562 3.27943C24.8562 3.35432 24.8389 3.42768 24.8073 3.49652Z" fill="#F9F0E2"/>
<path d="M24.2674 5.41533C24.2629 5.41533 24.2584 5.41533 24.2546 5.41533C24.2689 5.40929 24.2824 5.4025 24.2959 5.39495C24.2937 5.40175 24.2914 5.40854 24.2899 5.41533C24.2824 5.41533 24.2749 5.41533 24.2674 5.41533ZM24.7202 4.96336C24.7389 4.90979 24.7495 4.85395 24.7495 4.79585C24.7495 4.42235 24.3275 4.11071 23.7711 4.0428C24.0038 4.02846 24.2171 3.97189 24.392 3.88511C24.9995 3.9251 25.4733 4.25106 25.4733 4.6487C25.4733 4.69926 25.4658 4.74832 25.4508 4.79585C25.1745 4.79962 24.9214 4.86149 24.7202 4.96336Z" fill="#F6EBD9"/>
<path d="M24.2546 5.41533C23.5953 5.4108 23.0621 5.06899 23.0621 4.64871C23.0621 4.40198 23.2446 4.18316 23.527 4.04282C23.5682 4.04584 23.6095 4.04659 23.6516 4.04659C23.6914 4.04659 23.7319 4.04584 23.771 4.04282C24.3274 4.11073 24.7494 4.42236 24.7494 4.79586C24.7494 4.85396 24.7389 4.90979 24.7201 4.96336C24.5099 5.07051 24.3567 5.22141 24.2959 5.39496C24.2823 5.4025 24.2688 5.40929 24.2546 5.41533Z" fill="#F9F0E2"/>
<path d="M24.2899 5.41533C24.2914 5.40854 24.2937 5.40175 24.2959 5.39495C24.5069 5.28781 24.6594 5.1369 24.7202 4.96336C24.9214 4.86149 25.1745 4.79962 25.4508 4.79585C25.3442 5.14445 24.8666 5.40854 24.2899 5.41533Z" fill="#F9F0E2"/>
<path d="M24.296 5.39497C24.3568 5.22143 24.5099 5.07052 24.7202 4.96337C24.6594 5.13692 24.5069 5.28783 24.296 5.39497Z" fill="#FBF4E9"/>
<path d="M23.7711 4.04282C23.7013 4.03452 23.6292 4.02999 23.5556 4.02924C23.7546 3.93643 24.0009 3.88135 24.2674 3.88135C24.3095 3.88135 24.3508 3.88286 24.3921 3.88513C24.2171 3.9719 24.0039 4.02848 23.7711 4.04282Z" fill="#F9F0E2"/>
<path d="M23.6519 4.0466C23.6097 4.0466 23.5683 4.04584 23.5269 4.04281C23.5367 4.03828 23.5457 4.03374 23.5555 4.0292C23.6293 4.02996 23.7016 4.03449 23.7716 4.04281C23.7324 4.04584 23.6918 4.0466 23.6519 4.0466Z" fill="#FBF4E9"/>
</svg>
